<mxfile>
    <diagram id="fsebdlMzdCCcftSe4Pso" name="Page-1">
        <mxGraphModel dx="1704" dy="1964" grid="0" gridSize="10" guides="1" tooltips="1" connect="1" arrows="1" fold="1" page="0" pageScale="1" pageWidth="850" pageHeight="1100" background="none" math="0" shadow="0">
            <root>
                <mxCell id="0"/>
                <mxCell id="1" parent="0"/>
                <mxCell id="733" value="" style="rounded=0;whiteSpace=wrap;html=1;fillColor=none;movable=1;resizable=1;rotatable=1;deletable=1;editable=1;connectable=1;container=0;" vertex="1" parent="1">
                    <mxGeometry x="2162" y="-516" width="32" height="32" as="geometry"/>
                </mxCell>
                <mxCell id="5" value="" style="edgeStyle=orthogonalEdgeStyle;rounded=0;orthogonalLoop=1;jettySize=auto;html=1;" parent="1" source="2" target="4" edge="1">
                    <mxGeometry relative="1" as="geometry"/>
                </mxCell>
                <mxCell id="2" value="Input: Coverage region + starting point" style="rounded=0;whiteSpace=wrap;html=1;" parent="1" vertex="1">
                    <mxGeometry x="297" y="-539" width="329" height="60" as="geometry"/>
                </mxCell>
                <mxCell id="3" value="&lt;font style=&quot;font-size: 44px&quot;&gt;System Outline&lt;/font&gt;" style="text;html=1;strokeColor=none;fillColor=none;align=center;verticalAlign=middle;whiteSpace=wrap;rounded=0;" parent="1" vertex="1">
                    <mxGeometry x="302" y="-642" width="328" height="20" as="geometry"/>
                </mxCell>
                <mxCell id="4" value="" style="whiteSpace=wrap;html=1;rounded=0;" parent="1" vertex="1">
                    <mxGeometry x="401.5" y="-399" width="120" height="60" as="geometry"/>
                </mxCell>
                <mxCell id="6" value="Global Planning" style="whiteSpace=wrap;html=1;rounded=0;" parent="1" vertex="1">
                    <mxGeometry x="846" y="-286" width="120" height="60" as="geometry"/>
                </mxCell>
                <mxCell id="7" value="Local Planning" style="whiteSpace=wrap;html=1;rounded=0;" parent="1" vertex="1">
                    <mxGeometry x="853" y="-209" width="120" height="60" as="geometry"/>
                </mxCell>
                <mxCell id="8" value="Frontier Updating" style="whiteSpace=wrap;html=1;rounded=0;" parent="1" vertex="1">
                    <mxGeometry x="856" y="-122" width="120" height="60" as="geometry"/>
                </mxCell>
                <mxCell id="9" value="&lt;span style=&quot;font-weight: 400&quot;&gt;Space Subdivision&lt;/span&gt;" style="whiteSpace=wrap;html=1;rounded=0;fontStyle=1" parent="1" vertex="1">
                    <mxGeometry x="1105" y="-171" width="120" height="60" as="geometry"/>
                </mxCell>
                <mxCell id="10" value="&lt;span style=&quot;font-weight: 400&quot;&gt;Risk Map Update&lt;/span&gt;" style="whiteSpace=wrap;html=1;rounded=0;fontStyle=1" parent="1" vertex="1">
                    <mxGeometry x="1111" y="-49" width="120" height="60" as="geometry"/>
                </mxCell>
                <mxCell id="11" value="&lt;span style=&quot;font-weight: 400&quot;&gt;Model Map Update&lt;/span&gt;" style="whiteSpace=wrap;html=1;rounded=0;fontStyle=1" parent="1" vertex="1">
                    <mxGeometry x="1098" y="20" width="120" height="60" as="geometry"/>
                </mxCell>
                <mxCell id="12" value="&lt;span style=&quot;font-weight: 400&quot;&gt;Trajectory Generation&lt;/span&gt;" style="whiteSpace=wrap;html=1;rounded=0;fontStyle=1" parent="1" vertex="1">
                    <mxGeometry x="907" y="-14" width="120" height="60" as="geometry"/>
                </mxCell>
                <mxCell id="13" value="&lt;span&gt;UAV Control&lt;/span&gt;" style="whiteSpace=wrap;html=1;rounded=0;fontStyle=0" parent="1" vertex="1">
                    <mxGeometry x="690" y="11" width="120" height="60" as="geometry"/>
                </mxCell>
                <mxCell id="14" value="Seed Generation" style="whiteSpace=wrap;html=1;rounded=0;fontStyle=0" parent="1" vertex="1">
                    <mxGeometry x="861" y="77" width="120" height="60" as="geometry"/>
                </mxCell>
                <mxCell id="528" value="" style="group;movable=1;resizable=1;rotatable=1;deletable=1;editable=1;connectable=1;container=0;" vertex="1" connectable="0" parent="1">
                    <mxGeometry x="2160" y="-840" width="880" height="480" as="geometry"/>
                </mxCell>
                <mxCell id="705" value="" style="rounded=0;whiteSpace=wrap;html=1;fillColor=none;movable=1;resizable=1;rotatable=1;deletable=1;editable=1;connectable=1;container=0;" vertex="1" parent="1">
                    <mxGeometry x="2226" y="-516" width="32" height="32" as="geometry"/>
                </mxCell>
                <mxCell id="706" value="" style="rounded=0;whiteSpace=wrap;html=1;fillColor=none;movable=1;resizable=1;rotatable=1;deletable=1;editable=1;connectable=1;container=0;" vertex="1" parent="1">
                    <mxGeometry x="2258" y="-516" width="32" height="32" as="geometry"/>
                </mxCell>
                <mxCell id="707" value="" style="rounded=0;whiteSpace=wrap;html=1;fillColor=none;movable=1;resizable=1;rotatable=1;deletable=1;editable=1;connectable=1;container=0;" vertex="1" parent="1">
                    <mxGeometry x="2226" y="-484" width="32" height="32" as="geometry"/>
                </mxCell>
                <mxCell id="708" value="" style="rounded=0;whiteSpace=wrap;html=1;fillColor=none;movable=1;resizable=1;rotatable=1;deletable=1;editable=1;connectable=1;container=0;" vertex="1" parent="1">
                    <mxGeometry x="2258" y="-484" width="32" height="32" as="geometry"/>
                </mxCell>
                <mxCell id="709" value="" style="rounded=0;whiteSpace=wrap;html=1;fillColor=none;movable=1;resizable=1;rotatable=1;deletable=1;editable=1;connectable=1;container=0;" vertex="1" parent="1">
                    <mxGeometry x="2290" y="-516" width="32" height="32" as="geometry"/>
                </mxCell>
                <mxCell id="710" value="" style="rounded=0;whiteSpace=wrap;html=1;fillColor=none;movable=1;resizable=1;rotatable=1;deletable=1;editable=1;connectable=1;container=0;" vertex="1" parent="1">
                    <mxGeometry x="2290" y="-484" width="32" height="32" as="geometry"/>
                </mxCell>
                <mxCell id="711" value="" style="rounded=0;whiteSpace=wrap;html=1;fillColor=none;movable=1;resizable=1;rotatable=1;deletable=1;editable=1;connectable=1;container=0;" vertex="1" parent="1">
                    <mxGeometry x="2226" y="-548" width="32" height="32" as="geometry"/>
                </mxCell>
                <mxCell id="712" value="" style="rounded=0;whiteSpace=wrap;html=1;fillColor=none;movable=1;resizable=1;rotatable=1;deletable=1;editable=1;connectable=1;container=0;" vertex="1" parent="1">
                    <mxGeometry x="2258" y="-548" width="32" height="32" as="geometry"/>
                </mxCell>
                <mxCell id="713" value="" style="rounded=0;whiteSpace=wrap;html=1;fillColor=none;movable=1;resizable=1;rotatable=1;deletable=1;editable=1;connectable=1;container=0;" vertex="1" parent="1">
                    <mxGeometry x="2290" y="-548" width="32" height="32" as="geometry"/>
                </mxCell>
                <mxCell id="732" value="" style="rounded=0;whiteSpace=wrap;html=1;fillColor=none;movable=1;resizable=1;rotatable=1;deletable=1;editable=1;connectable=1;container=0;" vertex="1" parent="1">
                    <mxGeometry x="2130" y="-516" width="32" height="32" as="geometry"/>
                </mxCell>
                <mxCell id="734" value="" style="rounded=0;whiteSpace=wrap;html=1;fillColor=none;movable=1;resizable=1;rotatable=1;deletable=1;editable=1;connectable=1;container=0;" vertex="1" parent="1">
                    <mxGeometry x="2130" y="-484" width="32" height="32" as="geometry"/>
                </mxCell>
                <mxCell id="735" value="" style="rounded=0;whiteSpace=wrap;html=1;fillColor=none;movable=1;resizable=1;rotatable=1;deletable=1;editable=1;connectable=1;container=0;" vertex="1" parent="1">
                    <mxGeometry x="2162" y="-484" width="32" height="32" as="geometry"/>
                </mxCell>
                <mxCell id="736" value="" style="rounded=0;whiteSpace=wrap;html=1;fillColor=none;movable=1;resizable=1;rotatable=1;deletable=1;editable=1;connectable=1;container=0;" vertex="1" parent="1">
                    <mxGeometry x="2194" y="-516" width="32" height="32" as="geometry"/>
                </mxCell>
                <mxCell id="737" value="" style="rounded=0;whiteSpace=wrap;html=1;fillColor=none;movable=1;resizable=1;rotatable=1;deletable=1;editable=1;connectable=1;container=0;" vertex="1" parent="1">
                    <mxGeometry x="2194" y="-484" width="32" height="32" as="geometry"/>
                </mxCell>
                <mxCell id="738" value="" style="rounded=0;whiteSpace=wrap;html=1;fillColor=none;movable=1;resizable=1;rotatable=1;deletable=1;editable=1;connectable=1;container=0;" vertex="1" parent="1">
                    <mxGeometry x="2130" y="-548" width="32" height="32" as="geometry"/>
                </mxCell>
                <mxCell id="739" value="" style="rounded=0;whiteSpace=wrap;html=1;fillColor=none;movable=1;resizable=1;rotatable=1;deletable=1;editable=1;connectable=1;container=0;" vertex="1" parent="1">
                    <mxGeometry x="2162" y="-548" width="32" height="32" as="geometry"/>
                </mxCell>
                <mxCell id="740" value="" style="rounded=0;whiteSpace=wrap;html=1;fillColor=none;movable=1;resizable=1;rotatable=1;deletable=1;editable=1;connectable=1;container=0;" vertex="1" parent="1">
                    <mxGeometry x="2194" y="-548" width="32" height="32" as="geometry"/>
                </mxCell>
                <mxCell id="741" value="" style="rounded=0;whiteSpace=wrap;html=1;fillColor=none;movable=1;resizable=1;rotatable=1;deletable=1;editable=1;connectable=1;container=0;" vertex="1" parent="1">
                    <mxGeometry x="2130" y="-612" width="32" height="32" as="geometry"/>
                </mxCell>
                <mxCell id="742" value="" style="rounded=0;whiteSpace=wrap;html=1;fillColor=none;movable=1;resizable=1;rotatable=1;deletable=1;editable=1;connectable=1;container=0;" vertex="1" parent="1">
                    <mxGeometry x="2162" y="-612" width="32" height="32" as="geometry"/>
                </mxCell>
                <mxCell id="743" value="" style="rounded=0;whiteSpace=wrap;html=1;fillColor=none;movable=1;resizable=1;rotatable=1;deletable=1;editable=1;connectable=1;container=0;" vertex="1" parent="1">
                    <mxGeometry x="2130" y="-580" width="32" height="32" as="geometry"/>
                </mxCell>
                <mxCell id="744" value="" style="rounded=0;whiteSpace=wrap;html=1;fillColor=none;movable=1;resizable=1;rotatable=1;deletable=1;editable=1;connectable=1;container=0;" vertex="1" parent="1">
                    <mxGeometry x="2162" y="-580" width="32" height="32" as="geometry"/>
                </mxCell>
                <mxCell id="745" value="" style="rounded=0;whiteSpace=wrap;html=1;fillColor=none;movable=1;resizable=1;rotatable=1;deletable=1;editable=1;connectable=1;container=0;" vertex="1" parent="1">
                    <mxGeometry x="2194" y="-612" width="32" height="32" as="geometry"/>
                </mxCell>
                <mxCell id="746" value="" style="rounded=0;whiteSpace=wrap;html=1;fillColor=none;movable=1;resizable=1;rotatable=1;deletable=1;editable=1;connectable=1;container=0;" vertex="1" parent="1">
                    <mxGeometry x="2194" y="-580" width="32" height="32" as="geometry"/>
                </mxCell>
                <mxCell id="747" value="" style="rounded=0;whiteSpace=wrap;html=1;fillColor=none;movable=1;resizable=1;rotatable=1;deletable=1;editable=1;connectable=1;container=0;" vertex="1" parent="1">
                    <mxGeometry x="2130" y="-644" width="32" height="32" as="geometry"/>
                </mxCell>
                <mxCell id="748" value="" style="rounded=0;whiteSpace=wrap;html=1;fillColor=none;movable=1;resizable=1;rotatable=1;deletable=1;editable=1;connectable=1;container=0;" vertex="1" parent="1">
                    <mxGeometry x="2162" y="-644" width="32" height="32" as="geometry"/>
                </mxCell>
                <mxCell id="749" value="" style="rounded=0;whiteSpace=wrap;html=1;fillColor=none;movable=1;resizable=1;rotatable=1;deletable=1;editable=1;connectable=1;container=0;" vertex="1" parent="1">
                    <mxGeometry x="2194" y="-644" width="32" height="32" as="geometry"/>
                </mxCell>
                <mxCell id="750" value="" style="rounded=0;whiteSpace=wrap;html=1;fillColor=none;movable=1;resizable=1;rotatable=1;deletable=1;editable=1;connectable=1;container=0;" vertex="1" parent="1">
                    <mxGeometry x="2226" y="-612" width="32" height="32" as="geometry"/>
                </mxCell>
                <mxCell id="751" value="" style="rounded=0;whiteSpace=wrap;html=1;fillColor=none;movable=1;resizable=1;rotatable=1;deletable=1;editable=1;connectable=1;container=0;" vertex="1" parent="1">
                    <mxGeometry x="2258" y="-612" width="32" height="32" as="geometry"/>
                </mxCell>
                <mxCell id="752" value="" style="rounded=0;whiteSpace=wrap;html=1;fillColor=none;movable=1;resizable=1;rotatable=1;deletable=1;editable=1;connectable=1;container=0;" vertex="1" parent="1">
                    <mxGeometry x="2226" y="-580" width="32" height="32" as="geometry"/>
                </mxCell>
                <mxCell id="753" value="" style="rounded=0;whiteSpace=wrap;html=1;fillColor=none;movable=1;resizable=1;rotatable=1;deletable=1;editable=1;connectable=1;container=0;" vertex="1" parent="1">
                    <mxGeometry x="2258" y="-580" width="32" height="32" as="geometry"/>
                </mxCell>
                <mxCell id="754" value="" style="rounded=0;whiteSpace=wrap;html=1;fillColor=none;movable=1;resizable=1;rotatable=1;deletable=1;editable=1;connectable=1;container=0;" vertex="1" parent="1">
                    <mxGeometry x="2290" y="-612" width="32" height="32" as="geometry"/>
                </mxCell>
                <mxCell id="755" value="" style="rounded=0;whiteSpace=wrap;html=1;fillColor=none;movable=1;resizable=1;rotatable=1;deletable=1;editable=1;connectable=1;container=0;" vertex="1" parent="1">
                    <mxGeometry x="2290" y="-580" width="32" height="32" as="geometry"/>
                </mxCell>
                <mxCell id="756" value="" style="rounded=0;whiteSpace=wrap;html=1;fillColor=none;movable=1;resizable=1;rotatable=1;deletable=1;editable=1;connectable=1;container=0;" vertex="1" parent="1">
                    <mxGeometry x="2226" y="-644" width="32" height="32" as="geometry"/>
                </mxCell>
                <mxCell id="757" value="" style="rounded=0;whiteSpace=wrap;html=1;fillColor=none;movable=1;resizable=1;rotatable=1;deletable=1;editable=1;connectable=1;container=0;" vertex="1" parent="1">
                    <mxGeometry x="2258" y="-644" width="32" height="32" as="geometry"/>
                </mxCell>
                <mxCell id="758" value="" style="rounded=0;whiteSpace=wrap;html=1;fillColor=none;movable=1;resizable=1;rotatable=1;deletable=1;editable=1;connectable=1;container=0;" vertex="1" parent="1">
                    <mxGeometry x="2290" y="-644" width="32" height="32" as="geometry"/>
                </mxCell>
                <mxCell id="759" value="" style="rounded=0;whiteSpace=wrap;html=1;fillColor=none;movable=1;resizable=1;rotatable=1;deletable=1;editable=1;connectable=1;container=0;" vertex="1" parent="1">
                    <mxGeometry x="2418" y="-516" width="32" height="32" as="geometry"/>
                </mxCell>
                <mxCell id="760" value="" style="rounded=0;whiteSpace=wrap;html=1;fillColor=none;movable=1;resizable=1;rotatable=1;deletable=1;editable=1;connectable=1;container=0;" vertex="1" parent="1">
                    <mxGeometry x="2450" y="-516" width="32" height="32" as="geometry"/>
                </mxCell>
                <mxCell id="761" value="" style="rounded=0;whiteSpace=wrap;html=1;fillColor=none;movable=1;resizable=1;rotatable=1;deletable=1;editable=1;connectable=1;container=0;" vertex="1" parent="1">
                    <mxGeometry x="2418" y="-484" width="32" height="32" as="geometry"/>
                </mxCell>
                <mxCell id="762" value="" style="rounded=0;whiteSpace=wrap;html=1;fillColor=none;movable=1;resizable=1;rotatable=1;deletable=1;editable=1;connectable=1;container=0;" vertex="1" parent="1">
                    <mxGeometry x="2450" y="-484" width="32" height="32" as="geometry"/>
                </mxCell>
                <mxCell id="763" value="" style="rounded=0;whiteSpace=wrap;html=1;fillColor=none;movable=1;resizable=1;rotatable=1;deletable=1;editable=1;connectable=1;container=0;" vertex="1" parent="1">
                    <mxGeometry x="2482" y="-516" width="32" height="32" as="geometry"/>
                </mxCell>
                <mxCell id="764" value="" style="rounded=0;whiteSpace=wrap;html=1;fillColor=none;movable=1;resizable=1;rotatable=1;deletable=1;editable=1;connectable=1;container=0;" vertex="1" parent="1">
                    <mxGeometry x="2482" y="-484" width="32" height="32" as="geometry"/>
                </mxCell>
                <mxCell id="765" value="" style="rounded=0;whiteSpace=wrap;html=1;fillColor=none;movable=1;resizable=1;rotatable=1;deletable=1;editable=1;connectable=1;container=0;" vertex="1" parent="1">
                    <mxGeometry x="2418" y="-548" width="32" height="32" as="geometry"/>
                </mxCell>
                <mxCell id="766" value="" style="rounded=0;whiteSpace=wrap;html=1;fillColor=none;movable=1;resizable=1;rotatable=1;deletable=1;editable=1;connectable=1;container=0;" vertex="1" parent="1">
                    <mxGeometry x="2450" y="-548" width="32" height="32" as="geometry"/>
                </mxCell>
                <mxCell id="767" value="" style="rounded=0;whiteSpace=wrap;html=1;fillColor=none;movable=1;resizable=1;rotatable=1;deletable=1;editable=1;connectable=1;container=0;" vertex="1" parent="1">
                    <mxGeometry x="2482" y="-548" width="32" height="32" as="geometry"/>
                </mxCell>
                <mxCell id="768" value="" style="rounded=0;whiteSpace=wrap;html=1;fillColor=none;movable=1;resizable=1;rotatable=1;deletable=1;editable=1;connectable=1;container=0;" vertex="1" parent="1">
                    <mxGeometry x="2322" y="-516" width="32" height="32" as="geometry"/>
                </mxCell>
                <mxCell id="769" value="" style="rounded=0;whiteSpace=wrap;html=1;fillColor=none;movable=1;resizable=1;rotatable=1;deletable=1;editable=1;connectable=1;container=0;" vertex="1" parent="1">
                    <mxGeometry x="2354" y="-516" width="32" height="32" as="geometry"/>
                </mxCell>
                <mxCell id="770" value="" style="rounded=0;whiteSpace=wrap;html=1;fillColor=none;movable=1;resizable=1;rotatable=1;deletable=1;editable=1;connectable=1;container=0;" vertex="1" parent="1">
                    <mxGeometry x="2322" y="-484" width="32" height="32" as="geometry"/>
                </mxCell>
                <mxCell id="771" value="" style="rounded=0;whiteSpace=wrap;html=1;fillColor=none;movable=1;resizable=1;rotatable=1;deletable=1;editable=1;connectable=1;container=0;" vertex="1" parent="1">
                    <mxGeometry x="2354" y="-484" width="32" height="32" as="geometry"/>
                </mxCell>
                <mxCell id="772" value="" style="rounded=0;whiteSpace=wrap;html=1;fillColor=none;movable=1;resizable=1;rotatable=1;deletable=1;editable=1;connectable=1;container=0;" vertex="1" parent="1">
                    <mxGeometry x="2386" y="-516" width="32" height="32" as="geometry"/>
                </mxCell>
                <mxCell id="773" value="" style="rounded=0;whiteSpace=wrap;html=1;fillColor=none;movable=1;resizable=1;rotatable=1;deletable=1;editable=1;connectable=1;container=0;" vertex="1" parent="1">
                    <mxGeometry x="2386" y="-484" width="32" height="32" as="geometry"/>
                </mxCell>
                <mxCell id="774" value="" style="rounded=0;whiteSpace=wrap;html=1;fillColor=none;movable=1;resizable=1;rotatable=1;deletable=1;editable=1;connectable=1;container=0;" vertex="1" parent="1">
                    <mxGeometry x="2322" y="-548" width="32" height="32" as="geometry"/>
                </mxCell>
                <mxCell id="775" value="" style="rounded=0;whiteSpace=wrap;html=1;fillColor=none;movable=1;resizable=1;rotatable=1;deletable=1;editable=1;connectable=1;container=0;" vertex="1" parent="1">
                    <mxGeometry x="2354" y="-548" width="32" height="32" as="geometry"/>
                </mxCell>
                <mxCell id="776" value="" style="rounded=0;whiteSpace=wrap;html=1;fillColor=none;movable=1;resizable=1;rotatable=1;deletable=1;editable=1;connectable=1;container=0;" vertex="1" parent="1">
                    <mxGeometry x="2386" y="-548" width="32" height="32" as="geometry"/>
                </mxCell>
                <mxCell id="777" value="" style="rounded=0;whiteSpace=wrap;html=1;fillColor=none;movable=1;resizable=1;rotatable=1;deletable=1;editable=1;connectable=1;container=0;" vertex="1" parent="1">
                    <mxGeometry x="2322" y="-612" width="32" height="32" as="geometry"/>
                </mxCell>
                <mxCell id="778" value="" style="rounded=0;whiteSpace=wrap;html=1;fillColor=none;movable=1;resizable=1;rotatable=1;deletable=1;editable=1;connectable=1;container=0;" vertex="1" parent="1">
                    <mxGeometry x="2354" y="-612" width="32" height="32" as="geometry"/>
                </mxCell>
                <mxCell id="779" value="" style="rounded=0;whiteSpace=wrap;html=1;fillColor=none;movable=1;resizable=1;rotatable=1;deletable=1;editable=1;connectable=1;container=0;" vertex="1" parent="1">
                    <mxGeometry x="2322" y="-580" width="32" height="32" as="geometry"/>
                </mxCell>
                <mxCell id="780" value="" style="rounded=0;whiteSpace=wrap;html=1;fillColor=none;movable=1;resizable=1;rotatable=1;deletable=1;editable=1;connectable=1;container=0;" vertex="1" parent="1">
                    <mxGeometry x="2354" y="-580" width="32" height="32" as="geometry"/>
                </mxCell>
                <mxCell id="781" value="" style="rounded=0;whiteSpace=wrap;html=1;fillColor=none;movable=1;resizable=1;rotatable=1;deletable=1;editable=1;connectable=1;container=0;" vertex="1" parent="1">
                    <mxGeometry x="2386" y="-612" width="32" height="32" as="geometry"/>
                </mxCell>
                <mxCell id="782" value="" style="rounded=0;whiteSpace=wrap;html=1;fillColor=none;movable=1;resizable=1;rotatable=1;deletable=1;editable=1;connectable=1;container=0;" vertex="1" parent="1">
                    <mxGeometry x="2386" y="-580" width="32" height="32" as="geometry"/>
                </mxCell>
                <mxCell id="783" value="" style="rounded=0;whiteSpace=wrap;html=1;fillColor=none;movable=1;resizable=1;rotatable=1;deletable=1;editable=1;connectable=1;container=0;" vertex="1" parent="1">
                    <mxGeometry x="2322" y="-644" width="32" height="32" as="geometry"/>
                </mxCell>
                <mxCell id="784" value="" style="rounded=0;whiteSpace=wrap;html=1;fillColor=none;movable=1;resizable=1;rotatable=1;deletable=1;editable=1;connectable=1;container=0;" vertex="1" parent="1">
                    <mxGeometry x="2354" y="-644" width="32" height="32" as="geometry"/>
                </mxCell>
                <mxCell id="785" value="" style="rounded=0;whiteSpace=wrap;html=1;fillColor=none;movable=1;resizable=1;rotatable=1;deletable=1;editable=1;connectable=1;container=0;" vertex="1" parent="1">
                    <mxGeometry x="2386" y="-644" width="32" height="32" as="geometry"/>
                </mxCell>
                <mxCell id="786" value="" style="rounded=0;whiteSpace=wrap;html=1;fillColor=none;movable=1;resizable=1;rotatable=1;deletable=1;editable=1;connectable=1;container=0;" vertex="1" parent="1">
                    <mxGeometry x="2418" y="-612" width="32" height="32" as="geometry"/>
                </mxCell>
                <mxCell id="787" value="" style="rounded=0;whiteSpace=wrap;html=1;fillColor=none;movable=1;resizable=1;rotatable=1;deletable=1;editable=1;connectable=1;container=0;" vertex="1" parent="1">
                    <mxGeometry x="2450" y="-612" width="32" height="32" as="geometry"/>
                </mxCell>
                <mxCell id="788" value="" style="rounded=0;whiteSpace=wrap;html=1;fillColor=none;movable=1;resizable=1;rotatable=1;deletable=1;editable=1;connectable=1;container=0;" vertex="1" parent="1">
                    <mxGeometry x="2418" y="-580" width="32" height="32" as="geometry"/>
                </mxCell>
                <mxCell id="789" value="" style="rounded=0;whiteSpace=wrap;html=1;fillColor=none;movable=1;resizable=1;rotatable=1;deletable=1;editable=1;connectable=1;container=0;" vertex="1" parent="1">
                    <mxGeometry x="2450" y="-580" width="32" height="32" as="geometry"/>
                </mxCell>
                <mxCell id="790" value="" style="rounded=0;whiteSpace=wrap;html=1;fillColor=none;movable=1;resizable=1;rotatable=1;deletable=1;editable=1;connectable=1;container=0;" vertex="1" parent="1">
                    <mxGeometry x="2482" y="-612" width="32" height="32" as="geometry"/>
                </mxCell>
                <mxCell id="791" value="" style="rounded=0;whiteSpace=wrap;html=1;fillColor=none;movable=1;resizable=1;rotatable=1;deletable=1;editable=1;connectable=1;container=0;" vertex="1" parent="1">
                    <mxGeometry x="2482" y="-580" width="32" height="32" as="geometry"/>
                </mxCell>
                <mxCell id="792" value="" style="rounded=0;whiteSpace=wrap;html=1;fillColor=none;movable=1;resizable=1;rotatable=1;deletable=1;editable=1;connectable=1;container=0;" vertex="1" parent="1">
                    <mxGeometry x="2418" y="-644" width="32" height="32" as="geometry"/>
                </mxCell>
                <mxCell id="793" value="" style="rounded=0;whiteSpace=wrap;html=1;fillColor=none;movable=1;resizable=1;rotatable=1;deletable=1;editable=1;connectable=1;container=0;" vertex="1" parent="1">
                    <mxGeometry x="2450" y="-644" width="32" height="32" as="geometry"/>
                </mxCell>
                <mxCell id="794" value="" style="rounded=0;whiteSpace=wrap;html=1;fillColor=none;movable=1;resizable=1;rotatable=1;deletable=1;editable=1;connectable=1;container=0;" vertex="1" parent="1">
                    <mxGeometry x="2482" y="-644" width="32" height="32" as="geometry"/>
                </mxCell>
                <mxCell id="795" value="" style="rounded=0;whiteSpace=wrap;html=1;fillColor=none;movable=1;resizable=1;rotatable=1;deletable=1;editable=1;connectable=1;container=0;" vertex="1" parent="1">
                    <mxGeometry x="2226" y="-708" width="32" height="32" as="geometry"/>
                </mxCell>
                <mxCell id="796" value="" style="rounded=0;whiteSpace=wrap;html=1;fillColor=none;movable=1;resizable=1;rotatable=1;deletable=1;editable=1;connectable=1;container=0;" vertex="1" parent="1">
                    <mxGeometry x="2258" y="-708" width="32" height="32" as="geometry"/>
                </mxCell>
                <mxCell id="797" value="" style="rounded=0;whiteSpace=wrap;html=1;fillColor=none;movable=1;resizable=1;rotatable=1;deletable=1;editable=1;connectable=1;container=0;" vertex="1" parent="1">
                    <mxGeometry x="2226" y="-676" width="32" height="32" as="geometry"/>
                </mxCell>
                <mxCell id="798" value="" style="rounded=0;whiteSpace=wrap;html=1;fillColor=none;movable=1;resizable=1;rotatable=1;deletable=1;editable=1;connectable=1;container=0;" vertex="1" parent="1">
                    <mxGeometry x="2258" y="-676" width="32" height="32" as="geometry"/>
                </mxCell>
                <mxCell id="799" value="" style="rounded=0;whiteSpace=wrap;html=1;fillColor=none;movable=1;resizable=1;rotatable=1;deletable=1;editable=1;connectable=1;container=0;" vertex="1" parent="1">
                    <mxGeometry x="2290" y="-708" width="32" height="32" as="geometry"/>
                </mxCell>
                <mxCell id="800" value="" style="rounded=0;whiteSpace=wrap;html=1;fillColor=none;movable=1;resizable=1;rotatable=1;deletable=1;editable=1;connectable=1;container=0;" vertex="1" parent="1">
                    <mxGeometry x="2290" y="-676" width="32" height="32" as="geometry"/>
                </mxCell>
                <mxCell id="801" value="" style="rounded=0;whiteSpace=wrap;html=1;fillColor=none;movable=1;resizable=1;rotatable=1;deletable=1;editable=1;connectable=1;container=0;" vertex="1" parent="1">
                    <mxGeometry x="2226" y="-740" width="32" height="32" as="geometry"/>
                </mxCell>
                <mxCell id="802" value="" style="rounded=0;whiteSpace=wrap;html=1;fillColor=none;movable=1;resizable=1;rotatable=1;deletable=1;editable=1;connectable=1;container=0;" vertex="1" parent="1">
                    <mxGeometry x="2258" y="-740" width="32" height="32" as="geometry"/>
                </mxCell>
                <mxCell id="803" value="" style="rounded=0;whiteSpace=wrap;html=1;fillColor=none;movable=1;resizable=1;rotatable=1;deletable=1;editable=1;connectable=1;container=0;" vertex="1" parent="1">
                    <mxGeometry x="2290" y="-740" width="32" height="32" as="geometry"/>
                </mxCell>
                <mxCell id="804" value="" style="rounded=0;whiteSpace=wrap;html=1;fillColor=none;movable=1;resizable=1;rotatable=1;deletable=1;editable=1;connectable=1;container=0;" vertex="1" parent="1">
                    <mxGeometry x="2130" y="-708" width="32" height="32" as="geometry"/>
                </mxCell>
                <mxCell id="805" value="" style="rounded=0;whiteSpace=wrap;html=1;fillColor=none;movable=1;resizable=1;rotatable=1;deletable=1;editable=1;connectable=1;container=0;" vertex="1" parent="1">
                    <mxGeometry x="2162" y="-708" width="32" height="32" as="geometry"/>
                </mxCell>
                <mxCell id="806" value="" style="rounded=0;whiteSpace=wrap;html=1;fillColor=none;movable=1;resizable=1;rotatable=1;deletable=1;editable=1;connectable=1;container=0;" vertex="1" parent="1">
                    <mxGeometry x="2130" y="-676" width="32" height="32" as="geometry"/>
                </mxCell>
                <mxCell id="807" value="" style="rounded=0;whiteSpace=wrap;html=1;fillColor=none;movable=1;resizable=1;rotatable=1;deletable=1;editable=1;connectable=1;container=0;" vertex="1" parent="1">
                    <mxGeometry x="2162" y="-676" width="32" height="32" as="geometry"/>
                </mxCell>
                <mxCell id="808" value="" style="rounded=0;whiteSpace=wrap;html=1;fillColor=none;movable=1;resizable=1;rotatable=1;deletable=1;editable=1;connectable=1;container=0;" vertex="1" parent="1">
                    <mxGeometry x="2194" y="-708" width="32" height="32" as="geometry"/>
                </mxCell>
                <mxCell id="809" value="" style="rounded=0;whiteSpace=wrap;html=1;fillColor=none;movable=1;resizable=1;rotatable=1;deletable=1;editable=1;connectable=1;container=0;" vertex="1" parent="1">
                    <mxGeometry x="2194" y="-676" width="32" height="32" as="geometry"/>
                </mxCell>
                <mxCell id="810" value="" style="rounded=0;whiteSpace=wrap;html=1;fillColor=none;movable=1;resizable=1;rotatable=1;deletable=1;editable=1;connectable=1;container=0;" vertex="1" parent="1">
                    <mxGeometry x="2130" y="-740" width="32" height="32" as="geometry"/>
                </mxCell>
                <mxCell id="811" value="" style="rounded=0;whiteSpace=wrap;html=1;fillColor=none;movable=1;resizable=1;rotatable=1;deletable=1;editable=1;connectable=1;container=0;" vertex="1" parent="1">
                    <mxGeometry x="2162" y="-740" width="32" height="32" as="geometry"/>
                </mxCell>
                <mxCell id="812" value="" style="rounded=0;whiteSpace=wrap;html=1;fillColor=none;movable=1;resizable=1;rotatable=1;deletable=1;editable=1;connectable=1;container=0;" vertex="1" parent="1">
                    <mxGeometry x="2194" y="-740" width="32" height="32" as="geometry"/>
                </mxCell>
                <mxCell id="813" value="" style="rounded=0;whiteSpace=wrap;html=1;fillColor=none;movable=1;resizable=1;rotatable=1;deletable=1;editable=1;connectable=1;container=0;" vertex="1" parent="1">
                    <mxGeometry x="2130" y="-804" width="32" height="32" as="geometry"/>
                </mxCell>
                <mxCell id="814" value="" style="rounded=0;whiteSpace=wrap;html=1;fillColor=none;movable=1;resizable=1;rotatable=1;deletable=1;editable=1;connectable=1;container=0;" vertex="1" parent="1">
                    <mxGeometry x="2162" y="-804" width="32" height="32" as="geometry"/>
                </mxCell>
                <mxCell id="815" value="" style="rounded=0;whiteSpace=wrap;html=1;fillColor=none;movable=1;resizable=1;rotatable=1;deletable=1;editable=1;connectable=1;container=0;" vertex="1" parent="1">
                    <mxGeometry x="2130" y="-772" width="32" height="32" as="geometry"/>
                </mxCell>
                <mxCell id="816" value="" style="rounded=0;whiteSpace=wrap;html=1;fillColor=none;movable=1;resizable=1;rotatable=1;deletable=1;editable=1;connectable=1;container=0;" vertex="1" parent="1">
                    <mxGeometry x="2162" y="-772" width="32" height="32" as="geometry"/>
                </mxCell>
                <mxCell id="817" value="" style="rounded=0;whiteSpace=wrap;html=1;fillColor=none;movable=1;resizable=1;rotatable=1;deletable=1;editable=1;connectable=1;container=0;" vertex="1" parent="1">
                    <mxGeometry x="2194" y="-804" width="32" height="32" as="geometry"/>
                </mxCell>
                <mxCell id="818" value="" style="rounded=0;whiteSpace=wrap;html=1;fillColor=none;movable=1;resizable=1;rotatable=1;deletable=1;editable=1;connectable=1;container=0;" vertex="1" parent="1">
                    <mxGeometry x="2194" y="-772" width="32" height="32" as="geometry"/>
                </mxCell>
                <mxCell id="819" value="" style="rounded=0;whiteSpace=wrap;html=1;fillColor=none;movable=1;resizable=1;rotatable=1;deletable=1;editable=1;connectable=1;container=0;" vertex="1" parent="1">
                    <mxGeometry x="2130" y="-836" width="32" height="32" as="geometry"/>
                </mxCell>
                <mxCell id="820" value="" style="rounded=0;whiteSpace=wrap;html=1;fillColor=none;movable=1;resizable=1;rotatable=1;deletable=1;editable=1;connectable=1;container=0;" vertex="1" parent="1">
                    <mxGeometry x="2162" y="-836" width="32" height="32" as="geometry"/>
                </mxCell>
                <mxCell id="821" value="" style="rounded=0;whiteSpace=wrap;html=1;fillColor=none;movable=1;resizable=1;rotatable=1;deletable=1;editable=1;connectable=1;container=0;" vertex="1" parent="1">
                    <mxGeometry x="2194" y="-836" width="32" height="32" as="geometry"/>
                </mxCell>
                <mxCell id="822" value="" style="rounded=0;whiteSpace=wrap;html=1;fillColor=none;movable=1;resizable=1;rotatable=1;deletable=1;editable=1;connectable=1;container=0;" vertex="1" parent="1">
                    <mxGeometry x="2226" y="-804" width="32" height="32" as="geometry"/>
                </mxCell>
                <mxCell id="823" value="" style="rounded=0;whiteSpace=wrap;html=1;fillColor=none;movable=1;resizable=1;rotatable=1;deletable=1;editable=1;connectable=1;container=0;" vertex="1" parent="1">
                    <mxGeometry x="2258" y="-804" width="32" height="32" as="geometry"/>
                </mxCell>
                <mxCell id="824" value="" style="rounded=0;whiteSpace=wrap;html=1;fillColor=none;movable=1;resizable=1;rotatable=1;deletable=1;editable=1;connectable=1;container=0;" vertex="1" parent="1">
                    <mxGeometry x="2226" y="-772" width="32" height="32" as="geometry"/>
                </mxCell>
                <mxCell id="825" value="" style="rounded=0;whiteSpace=wrap;html=1;fillColor=none;movable=1;resizable=1;rotatable=1;deletable=1;editable=1;connectable=1;container=0;" vertex="1" parent="1">
                    <mxGeometry x="2258" y="-772" width="32" height="32" as="geometry"/>
                </mxCell>
                <mxCell id="826" value="" style="rounded=0;whiteSpace=wrap;html=1;fillColor=none;movable=1;resizable=1;rotatable=1;deletable=1;editable=1;connectable=1;container=0;" vertex="1" parent="1">
                    <mxGeometry x="2290" y="-804" width="32" height="32" as="geometry"/>
                </mxCell>
                <mxCell id="827" value="" style="rounded=0;whiteSpace=wrap;html=1;fillColor=none;movable=1;resizable=1;rotatable=1;deletable=1;editable=1;connectable=1;container=0;" vertex="1" parent="1">
                    <mxGeometry x="2290" y="-772" width="32" height="32" as="geometry"/>
                </mxCell>
                <mxCell id="828" value="" style="rounded=0;whiteSpace=wrap;html=1;fillColor=none;movable=1;resizable=1;rotatable=1;deletable=1;editable=1;connectable=1;container=0;" vertex="1" parent="1">
                    <mxGeometry x="2226" y="-836" width="32" height="32" as="geometry"/>
                </mxCell>
                <mxCell id="829" value="" style="rounded=0;whiteSpace=wrap;html=1;fillColor=none;movable=1;resizable=1;rotatable=1;deletable=1;editable=1;connectable=1;container=0;" vertex="1" parent="1">
                    <mxGeometry x="2258" y="-836" width="32" height="32" as="geometry"/>
                </mxCell>
                <mxCell id="830" value="" style="rounded=0;whiteSpace=wrap;html=1;fillColor=none;movable=1;resizable=1;rotatable=1;deletable=1;editable=1;connectable=1;container=0;" vertex="1" parent="1">
                    <mxGeometry x="2290" y="-836" width="32" height="32" as="geometry"/>
                </mxCell>
                <mxCell id="831" value="" style="rounded=0;whiteSpace=wrap;html=1;fillColor=none;movable=1;resizable=1;rotatable=1;deletable=1;editable=1;connectable=1;container=0;" vertex="1" parent="1">
                    <mxGeometry x="2418" y="-708" width="32" height="32" as="geometry"/>
                </mxCell>
                <mxCell id="832" value="" style="rounded=0;whiteSpace=wrap;html=1;fillColor=none;movable=1;resizable=1;rotatable=1;deletable=1;editable=1;connectable=1;container=0;" vertex="1" parent="1">
                    <mxGeometry x="2450" y="-708" width="32" height="32" as="geometry"/>
                </mxCell>
                <mxCell id="833" value="" style="rounded=0;whiteSpace=wrap;html=1;fillColor=none;movable=1;resizable=1;rotatable=1;deletable=1;editable=1;connectable=1;container=0;" vertex="1" parent="1">
                    <mxGeometry x="2418" y="-676" width="32" height="32" as="geometry"/>
                </mxCell>
                <mxCell id="834" value="" style="rounded=0;whiteSpace=wrap;html=1;fillColor=none;movable=1;resizable=1;rotatable=1;deletable=1;editable=1;connectable=1;container=0;" vertex="1" parent="1">
                    <mxGeometry x="2450" y="-676" width="32" height="32" as="geometry"/>
                </mxCell>
                <mxCell id="835" value="" style="rounded=0;whiteSpace=wrap;html=1;fillColor=none;movable=1;resizable=1;rotatable=1;deletable=1;editable=1;connectable=1;container=0;" vertex="1" parent="1">
                    <mxGeometry x="2482" y="-708" width="32" height="32" as="geometry"/>
                </mxCell>
                <mxCell id="836" value="" style="rounded=0;whiteSpace=wrap;html=1;fillColor=none;movable=1;resizable=1;rotatable=1;deletable=1;editable=1;connectable=1;container=0;" vertex="1" parent="1">
                    <mxGeometry x="2482" y="-676" width="32" height="32" as="geometry"/>
                </mxCell>
                <mxCell id="837" value="" style="rounded=0;whiteSpace=wrap;html=1;fillColor=none;movable=1;resizable=1;rotatable=1;deletable=1;editable=1;connectable=1;container=0;" vertex="1" parent="1">
                    <mxGeometry x="2418" y="-740" width="32" height="32" as="geometry"/>
                </mxCell>
                <mxCell id="838" value="" style="rounded=0;whiteSpace=wrap;html=1;fillColor=none;movable=1;resizable=1;rotatable=1;deletable=1;editable=1;connectable=1;container=0;" vertex="1" parent="1">
                    <mxGeometry x="2450" y="-740" width="32" height="32" as="geometry"/>
                </mxCell>
                <mxCell id="839" value="" style="rounded=0;whiteSpace=wrap;html=1;fillColor=none;movable=1;resizable=1;rotatable=1;deletable=1;editable=1;connectable=1;container=0;" vertex="1" parent="1">
                    <mxGeometry x="2482" y="-740" width="32" height="32" as="geometry"/>
                </mxCell>
                <mxCell id="840" value="" style="rounded=0;whiteSpace=wrap;html=1;fillColor=none;movable=1;resizable=1;rotatable=1;deletable=1;editable=1;connectable=1;container=0;" vertex="1" parent="1">
                    <mxGeometry x="2322" y="-708" width="32" height="32" as="geometry"/>
                </mxCell>
                <mxCell id="841" value="" style="rounded=0;whiteSpace=wrap;html=1;fillColor=none;movable=1;resizable=1;rotatable=1;deletable=1;editable=1;connectable=1;container=0;" vertex="1" parent="1">
                    <mxGeometry x="2354" y="-708" width="32" height="32" as="geometry"/>
                </mxCell>
                <mxCell id="842" value="" style="rounded=0;whiteSpace=wrap;html=1;fillColor=none;movable=1;resizable=1;rotatable=1;deletable=1;editable=1;connectable=1;container=0;" vertex="1" parent="1">
                    <mxGeometry x="2322" y="-676" width="32" height="32" as="geometry"/>
                </mxCell>
                <mxCell id="843" value="" style="rounded=0;whiteSpace=wrap;html=1;fillColor=none;movable=1;resizable=1;rotatable=1;deletable=1;editable=1;connectable=1;container=0;" vertex="1" parent="1">
                    <mxGeometry x="2354" y="-676" width="32" height="32" as="geometry"/>
                </mxCell>
                <mxCell id="844" value="" style="rounded=0;whiteSpace=wrap;html=1;fillColor=none;movable=1;resizable=1;rotatable=1;deletable=1;editable=1;connectable=1;container=0;" vertex="1" parent="1">
                    <mxGeometry x="2386" y="-708" width="32" height="32" as="geometry"/>
                </mxCell>
                <mxCell id="845" value="" style="rounded=0;whiteSpace=wrap;html=1;fillColor=none;movable=1;resizable=1;rotatable=1;deletable=1;editable=1;connectable=1;container=0;" vertex="1" parent="1">
                    <mxGeometry x="2386" y="-676" width="32" height="32" as="geometry"/>
                </mxCell>
                <mxCell id="846" value="" style="rounded=0;whiteSpace=wrap;html=1;fillColor=none;movable=1;resizable=1;rotatable=1;deletable=1;editable=1;connectable=1;container=0;" vertex="1" parent="1">
                    <mxGeometry x="2322" y="-740" width="32" height="32" as="geometry"/>
                </mxCell>
                <mxCell id="847" value="" style="rounded=0;whiteSpace=wrap;html=1;fillColor=none;movable=1;resizable=1;rotatable=1;deletable=1;editable=1;connectable=1;container=0;" vertex="1" parent="1">
                    <mxGeometry x="2354" y="-740" width="32" height="32" as="geometry"/>
                </mxCell>
                <mxCell id="848" value="" style="rounded=0;whiteSpace=wrap;html=1;fillColor=none;movable=1;resizable=1;rotatable=1;deletable=1;editable=1;connectable=1;container=0;" vertex="1" parent="1">
                    <mxGeometry x="2386" y="-740" width="32" height="32" as="geometry"/>
                </mxCell>
                <mxCell id="849" value="" style="rounded=0;whiteSpace=wrap;html=1;fillColor=none;movable=1;resizable=1;rotatable=1;deletable=1;editable=1;connectable=1;container=0;" vertex="1" parent="1">
                    <mxGeometry x="2322" y="-804" width="32" height="32" as="geometry"/>
                </mxCell>
                <mxCell id="850" value="" style="rounded=0;whiteSpace=wrap;html=1;fillColor=none;movable=1;resizable=1;rotatable=1;deletable=1;editable=1;connectable=1;container=0;" vertex="1" parent="1">
                    <mxGeometry x="2354" y="-804" width="32" height="32" as="geometry"/>
                </mxCell>
                <mxCell id="851" value="" style="rounded=0;whiteSpace=wrap;html=1;fillColor=none;movable=1;resizable=1;rotatable=1;deletable=1;editable=1;connectable=1;container=0;" vertex="1" parent="1">
                    <mxGeometry x="2322" y="-772" width="32" height="32" as="geometry"/>
                </mxCell>
                <mxCell id="852" value="" style="rounded=0;whiteSpace=wrap;html=1;fillColor=none;movable=1;resizable=1;rotatable=1;deletable=1;editable=1;connectable=1;container=0;" vertex="1" parent="1">
                    <mxGeometry x="2354" y="-772" width="32" height="32" as="geometry"/>
                </mxCell>
                <mxCell id="853" value="" style="rounded=0;whiteSpace=wrap;html=1;fillColor=none;movable=1;resizable=1;rotatable=1;deletable=1;editable=1;connectable=1;container=0;" vertex="1" parent="1">
                    <mxGeometry x="2386" y="-804" width="32" height="32" as="geometry"/>
                </mxCell>
                <mxCell id="854" value="" style="rounded=0;whiteSpace=wrap;html=1;fillColor=none;movable=1;resizable=1;rotatable=1;deletable=1;editable=1;connectable=1;container=0;" vertex="1" parent="1">
                    <mxGeometry x="2386" y="-772" width="32" height="32" as="geometry"/>
                </mxCell>
                <mxCell id="855" value="" style="rounded=0;whiteSpace=wrap;html=1;fillColor=none;movable=1;resizable=1;rotatable=1;deletable=1;editable=1;connectable=1;container=0;" vertex="1" parent="1">
                    <mxGeometry x="2322" y="-836" width="32" height="32" as="geometry"/>
                </mxCell>
                <mxCell id="856" value="" style="rounded=0;whiteSpace=wrap;html=1;fillColor=none;movable=1;resizable=1;rotatable=1;deletable=1;editable=1;connectable=1;container=0;" vertex="1" parent="1">
                    <mxGeometry x="2354" y="-836" width="32" height="32" as="geometry"/>
                </mxCell>
                <mxCell id="857" value="" style="rounded=0;whiteSpace=wrap;html=1;fillColor=none;movable=1;resizable=1;rotatable=1;deletable=1;editable=1;connectable=1;container=0;" vertex="1" parent="1">
                    <mxGeometry x="2386" y="-836" width="32" height="32" as="geometry"/>
                </mxCell>
                <mxCell id="858" value="" style="rounded=0;whiteSpace=wrap;html=1;fillColor=none;movable=1;resizable=1;rotatable=1;deletable=1;editable=1;connectable=1;container=0;" vertex="1" parent="1">
                    <mxGeometry x="2418" y="-804" width="32" height="32" as="geometry"/>
                </mxCell>
                <mxCell id="859" value="" style="rounded=0;whiteSpace=wrap;html=1;fillColor=none;movable=1;resizable=1;rotatable=1;deletable=1;editable=1;connectable=1;container=0;" vertex="1" parent="1">
                    <mxGeometry x="2450" y="-804" width="32" height="32" as="geometry"/>
                </mxCell>
                <mxCell id="860" value="" style="rounded=0;whiteSpace=wrap;html=1;fillColor=none;movable=1;resizable=1;rotatable=1;deletable=1;editable=1;connectable=1;container=0;" vertex="1" parent="1">
                    <mxGeometry x="2418" y="-772" width="32" height="32" as="geometry"/>
                </mxCell>
                <mxCell id="861" value="" style="rounded=0;whiteSpace=wrap;html=1;fillColor=none;movable=1;resizable=1;rotatable=1;deletable=1;editable=1;connectable=1;container=0;" vertex="1" parent="1">
                    <mxGeometry x="2450" y="-772" width="32" height="32" as="geometry"/>
                </mxCell>
                <mxCell id="862" value="" style="rounded=0;whiteSpace=wrap;html=1;fillColor=none;movable=1;resizable=1;rotatable=1;deletable=1;editable=1;connectable=1;container=0;" vertex="1" parent="1">
                    <mxGeometry x="2482" y="-804" width="32" height="32" as="geometry"/>
                </mxCell>
                <mxCell id="863" value="" style="rounded=0;whiteSpace=wrap;html=1;fillColor=none;movable=1;resizable=1;rotatable=1;deletable=1;editable=1;connectable=1;container=0;" vertex="1" parent="1">
                    <mxGeometry x="2482" y="-772" width="32" height="32" as="geometry"/>
                </mxCell>
                <mxCell id="864" value="" style="rounded=0;whiteSpace=wrap;html=1;fillColor=none;movable=1;resizable=1;rotatable=1;deletable=1;editable=1;connectable=1;container=0;" vertex="1" parent="1">
                    <mxGeometry x="2418" y="-836" width="32" height="32" as="geometry"/>
                </mxCell>
                <mxCell id="865" value="" style="rounded=0;whiteSpace=wrap;html=1;fillColor=none;movable=1;resizable=1;rotatable=1;deletable=1;editable=1;connectable=1;container=0;" vertex="1" parent="1">
                    <mxGeometry x="2450" y="-836" width="32" height="32" as="geometry"/>
                </mxCell>
                <mxCell id="866" value="" style="rounded=0;whiteSpace=wrap;html=1;fillColor=none;movable=1;resizable=1;rotatable=1;deletable=1;editable=1;connectable=1;container=0;" vertex="1" parent="1">
                    <mxGeometry x="2482" y="-836" width="32" height="32" as="geometry"/>
                </mxCell>
                <mxCell id="1047" value="" style="rounded=0;whiteSpace=wrap;html=1;fillColor=none;movable=1;resizable=1;rotatable=1;deletable=1;editable=1;connectable=1;container=0;" vertex="1" parent="1">
                    <mxGeometry x="2610" y="-516" width="32" height="32" as="geometry"/>
                </mxCell>
                <mxCell id="1048" value="" style="rounded=0;whiteSpace=wrap;html=1;fillColor=none;movable=1;resizable=1;rotatable=1;deletable=1;editable=1;connectable=1;container=0;" vertex="1" parent="1">
                    <mxGeometry x="2642" y="-516" width="32" height="32" as="geometry"/>
                </mxCell>
                <mxCell id="1049" value="" style="rounded=0;whiteSpace=wrap;html=1;fillColor=none;movable=1;resizable=1;rotatable=1;deletable=1;editable=1;connectable=1;container=0;" vertex="1" parent="1">
                    <mxGeometry x="2610" y="-484" width="32" height="32" as="geometry"/>
                </mxCell>
                <mxCell id="1050" value="" style="rounded=0;whiteSpace=wrap;html=1;fillColor=none;movable=1;resizable=1;rotatable=1;deletable=1;editable=1;connectable=1;container=0;" vertex="1" parent="1">
                    <mxGeometry x="2642" y="-484" width="32" height="32" as="geometry"/>
                </mxCell>
                <mxCell id="1051" value="" style="rounded=0;whiteSpace=wrap;html=1;fillColor=none;movable=1;resizable=1;rotatable=1;deletable=1;editable=1;connectable=1;container=0;" vertex="1" parent="1">
                    <mxGeometry x="2674" y="-516" width="32" height="32" as="geometry"/>
                </mxCell>
                <mxCell id="1052" value="" style="rounded=0;whiteSpace=wrap;html=1;fillColor=none;movable=1;resizable=1;rotatable=1;deletable=1;editable=1;connectable=1;container=0;" vertex="1" parent="1">
                    <mxGeometry x="2674" y="-484" width="32" height="32" as="geometry"/>
                </mxCell>
                <mxCell id="1053" value="" style="rounded=0;whiteSpace=wrap;html=1;fillColor=none;movable=1;resizable=1;rotatable=1;deletable=1;editable=1;connectable=1;container=0;" vertex="1" parent="1">
                    <mxGeometry x="2610" y="-548" width="32" height="32" as="geometry"/>
                </mxCell>
                <mxCell id="1054" value="" style="rounded=0;whiteSpace=wrap;html=1;fillColor=none;movable=1;resizable=1;rotatable=1;deletable=1;editable=1;connectable=1;container=0;" vertex="1" parent="1">
                    <mxGeometry x="2642" y="-548" width="32" height="32" as="geometry"/>
                </mxCell>
                <mxCell id="1055" value="" style="rounded=0;whiteSpace=wrap;html=1;fillColor=none;movable=1;resizable=1;rotatable=1;deletable=1;editable=1;connectable=1;container=0;" vertex="1" parent="1">
                    <mxGeometry x="2674" y="-548" width="32" height="32" as="geometry"/>
                </mxCell>
                <mxCell id="1056" value="" style="rounded=0;whiteSpace=wrap;html=1;fillColor=none;movable=1;resizable=1;rotatable=1;deletable=1;editable=1;connectable=1;container=0;" vertex="1" parent="1">
                    <mxGeometry x="2514" y="-516" width="32" height="32" as="geometry"/>
                </mxCell>
                <mxCell id="1057" value="" style="rounded=0;whiteSpace=wrap;html=1;fillColor=none;movable=1;resizable=1;rotatable=1;deletable=1;editable=1;connectable=1;container=0;" vertex="1" parent="1">
                    <mxGeometry x="2546" y="-516" width="32" height="32" as="geometry"/>
                </mxCell>
                <mxCell id="1058" value="" style="rounded=0;whiteSpace=wrap;html=1;fillColor=none;movable=1;resizable=1;rotatable=1;deletable=1;editable=1;connectable=1;container=0;" vertex="1" parent="1">
                    <mxGeometry x="2514" y="-484" width="32" height="32" as="geometry"/>
                </mxCell>
                <mxCell id="1059" value="" style="rounded=0;whiteSpace=wrap;html=1;fillColor=none;movable=1;resizable=1;rotatable=1;deletable=1;editable=1;connectable=1;container=0;" vertex="1" parent="1">
                    <mxGeometry x="2546" y="-484" width="32" height="32" as="geometry"/>
                </mxCell>
                <mxCell id="1060" value="" style="rounded=0;whiteSpace=wrap;html=1;fillColor=none;movable=1;resizable=1;rotatable=1;deletable=1;editable=1;connectable=1;container=0;" vertex="1" parent="1">
                    <mxGeometry x="2578" y="-516" width="32" height="32" as="geometry"/>
                </mxCell>
                <mxCell id="1061" value="" style="rounded=0;whiteSpace=wrap;html=1;fillColor=none;movable=1;resizable=1;rotatable=1;deletable=1;editable=1;connectable=1;container=0;" vertex="1" parent="1">
                    <mxGeometry x="2578" y="-484" width="32" height="32" as="geometry"/>
                </mxCell>
                <mxCell id="1062" value="" style="rounded=0;whiteSpace=wrap;html=1;fillColor=none;movable=1;resizable=1;rotatable=1;deletable=1;editable=1;connectable=1;container=0;" vertex="1" parent="1">
                    <mxGeometry x="2514" y="-548" width="32" height="32" as="geometry"/>
                </mxCell>
                <mxCell id="1063" value="" style="rounded=0;whiteSpace=wrap;html=1;fillColor=none;movable=1;resizable=1;rotatable=1;deletable=1;editable=1;connectable=1;container=0;" vertex="1" parent="1">
                    <mxGeometry x="2546" y="-548" width="32" height="32" as="geometry"/>
                </mxCell>
                <mxCell id="1064" value="" style="rounded=0;whiteSpace=wrap;html=1;fillColor=none;movable=1;resizable=1;rotatable=1;deletable=1;editable=1;connectable=1;container=0;" vertex="1" parent="1">
                    <mxGeometry x="2578" y="-548" width="32" height="32" as="geometry"/>
                </mxCell>
                <mxCell id="1065" value="" style="rounded=0;whiteSpace=wrap;html=1;fillColor=none;movable=1;resizable=1;rotatable=1;deletable=1;editable=1;connectable=1;container=0;" vertex="1" parent="1">
                    <mxGeometry x="2514" y="-612" width="32" height="32" as="geometry"/>
                </mxCell>
                <mxCell id="1066" value="" style="rounded=0;whiteSpace=wrap;html=1;fillColor=none;movable=1;resizable=1;rotatable=1;deletable=1;editable=1;connectable=1;container=0;" vertex="1" parent="1">
                    <mxGeometry x="2546" y="-612" width="32" height="32" as="geometry"/>
                </mxCell>
                <mxCell id="1067" value="" style="rounded=0;whiteSpace=wrap;html=1;fillColor=none;movable=1;resizable=1;rotatable=1;deletable=1;editable=1;connectable=1;container=0;" vertex="1" parent="1">
                    <mxGeometry x="2514" y="-580" width="32" height="32" as="geometry"/>
                </mxCell>
                <mxCell id="1068" value="" style="rounded=0;whiteSpace=wrap;html=1;fillColor=none;movable=1;resizable=1;rotatable=1;deletable=1;editable=1;connectable=1;container=0;" vertex="1" parent="1">
                    <mxGeometry x="2546" y="-580" width="32" height="32" as="geometry"/>
                </mxCell>
                <mxCell id="1069" value="" style="rounded=0;whiteSpace=wrap;html=1;fillColor=none;movable=1;resizable=1;rotatable=1;deletable=1;editable=1;connectable=1;container=0;" vertex="1" parent="1">
                    <mxGeometry x="2578" y="-612" width="32" height="32" as="geometry"/>
                </mxCell>
                <mxCell id="1070" value="" style="rounded=0;whiteSpace=wrap;html=1;fillColor=none;movable=1;resizable=1;rotatable=1;deletable=1;editable=1;connectable=1;container=0;" vertex="1" parent="1">
                    <mxGeometry x="2578" y="-580" width="32" height="32" as="geometry"/>
                </mxCell>
                <mxCell id="1071" value="" style="rounded=0;whiteSpace=wrap;html=1;fillColor=none;movable=1;resizable=1;rotatable=1;deletable=1;editable=1;connectable=1;container=0;" vertex="1" parent="1">
                    <mxGeometry x="2514" y="-644" width="32" height="32" as="geometry"/>
                </mxCell>
                <mxCell id="1072" value="" style="rounded=0;whiteSpace=wrap;html=1;fillColor=none;movable=1;resizable=1;rotatable=1;deletable=1;editable=1;connectable=1;container=0;" vertex="1" parent="1">
                    <mxGeometry x="2546" y="-644" width="32" height="32" as="geometry"/>
                </mxCell>
                <mxCell id="1073" value="" style="rounded=0;whiteSpace=wrap;html=1;fillColor=none;movable=1;resizable=1;rotatable=1;deletable=1;editable=1;connectable=1;container=0;" vertex="1" parent="1">
                    <mxGeometry x="2578" y="-644" width="32" height="32" as="geometry"/>
                </mxCell>
                <mxCell id="1074" value="" style="rounded=0;whiteSpace=wrap;html=1;fillColor=none;movable=1;resizable=1;rotatable=1;deletable=1;editable=1;connectable=1;container=0;" vertex="1" parent="1">
                    <mxGeometry x="2610" y="-612" width="32" height="32" as="geometry"/>
                </mxCell>
                <mxCell id="1075" value="" style="rounded=0;whiteSpace=wrap;html=1;fillColor=none;movable=1;resizable=1;rotatable=1;deletable=1;editable=1;connectable=1;container=0;" vertex="1" parent="1">
                    <mxGeometry x="2642" y="-612" width="32" height="32" as="geometry"/>
                </mxCell>
                <mxCell id="1076" value="" style="rounded=0;whiteSpace=wrap;html=1;fillColor=none;movable=1;resizable=1;rotatable=1;deletable=1;editable=1;connectable=1;container=0;" vertex="1" parent="1">
                    <mxGeometry x="2610" y="-580" width="32" height="32" as="geometry"/>
                </mxCell>
                <mxCell id="1077" value="" style="rounded=0;whiteSpace=wrap;html=1;fillColor=none;movable=1;resizable=1;rotatable=1;deletable=1;editable=1;connectable=1;container=0;" vertex="1" parent="1">
                    <mxGeometry x="2642" y="-580" width="32" height="32" as="geometry"/>
                </mxCell>
                <mxCell id="1078" value="" style="rounded=0;whiteSpace=wrap;html=1;fillColor=none;movable=1;resizable=1;rotatable=1;deletable=1;editable=1;connectable=1;container=0;" vertex="1" parent="1">
                    <mxGeometry x="2674" y="-612" width="32" height="32" as="geometry"/>
                </mxCell>
                <mxCell id="1079" value="" style="rounded=0;whiteSpace=wrap;html=1;fillColor=none;movable=1;resizable=1;rotatable=1;deletable=1;editable=1;connectable=1;container=0;" vertex="1" parent="1">
                    <mxGeometry x="2674" y="-580" width="32" height="32" as="geometry"/>
                </mxCell>
                <mxCell id="1080" value="" style="rounded=0;whiteSpace=wrap;html=1;fillColor=none;movable=1;resizable=1;rotatable=1;deletable=1;editable=1;connectable=1;container=0;" vertex="1" parent="1">
                    <mxGeometry x="2610" y="-644" width="32" height="32" as="geometry"/>
                </mxCell>
                <mxCell id="1081" value="" style="rounded=0;whiteSpace=wrap;html=1;fillColor=none;movable=1;resizable=1;rotatable=1;deletable=1;editable=1;connectable=1;container=0;" vertex="1" parent="1">
                    <mxGeometry x="2642" y="-644" width="32" height="32" as="geometry"/>
                </mxCell>
                <mxCell id="1082" value="" style="rounded=0;whiteSpace=wrap;html=1;fillColor=none;movable=1;resizable=1;rotatable=1;deletable=1;editable=1;connectable=1;container=0;" vertex="1" parent="1">
                    <mxGeometry x="2674" y="-644" width="32" height="32" as="geometry"/>
                </mxCell>
                <mxCell id="1083" value="" style="rounded=0;whiteSpace=wrap;html=1;fillColor=none;movable=1;resizable=1;rotatable=1;deletable=1;editable=1;connectable=1;container=0;" vertex="1" parent="1">
                    <mxGeometry x="2802" y="-516" width="32" height="32" as="geometry"/>
                </mxCell>
                <mxCell id="1084" value="" style="rounded=0;whiteSpace=wrap;html=1;fillColor=none;movable=1;resizable=1;rotatable=1;deletable=1;editable=1;connectable=1;container=0;" vertex="1" parent="1">
                    <mxGeometry x="2834" y="-516" width="32" height="32" as="geometry"/>
                </mxCell>
                <mxCell id="1085" value="" style="rounded=0;whiteSpace=wrap;html=1;fillColor=none;movable=1;resizable=1;rotatable=1;deletable=1;editable=1;connectable=1;container=0;" vertex="1" parent="1">
                    <mxGeometry x="2802" y="-484" width="32" height="32" as="geometry"/>
                </mxCell>
                <mxCell id="1086" value="" style="rounded=0;whiteSpace=wrap;html=1;fillColor=none;movable=1;resizable=1;rotatable=1;deletable=1;editable=1;connectable=1;container=0;" vertex="1" parent="1">
                    <mxGeometry x="2834" y="-484" width="32" height="32" as="geometry"/>
                </mxCell>
                <mxCell id="1087" value="" style="rounded=0;whiteSpace=wrap;html=1;fillColor=none;movable=1;resizable=1;rotatable=1;deletable=1;editable=1;connectable=1;container=0;" vertex="1" parent="1">
                    <mxGeometry x="2866" y="-516" width="32" height="32" as="geometry"/>
                </mxCell>
                <mxCell id="1088" value="" style="rounded=0;whiteSpace=wrap;html=1;fillColor=none;movable=1;resizable=1;rotatable=1;deletable=1;editable=1;connectable=1;container=0;" vertex="1" parent="1">
                    <mxGeometry x="2866" y="-484" width="32" height="32" as="geometry"/>
                </mxCell>
                <mxCell id="1089" value="" style="rounded=0;whiteSpace=wrap;html=1;fillColor=none;movable=1;resizable=1;rotatable=1;deletable=1;editable=1;connectable=1;container=0;" vertex="1" parent="1">
                    <mxGeometry x="2802" y="-548" width="32" height="32" as="geometry"/>
                </mxCell>
                <mxCell id="1090" value="" style="rounded=0;whiteSpace=wrap;html=1;fillColor=none;movable=1;resizable=1;rotatable=1;deletable=1;editable=1;connectable=1;container=0;" vertex="1" parent="1">
                    <mxGeometry x="2834" y="-548" width="32" height="32" as="geometry"/>
                </mxCell>
                <mxCell id="1091" value="" style="rounded=0;whiteSpace=wrap;html=1;fillColor=none;movable=1;resizable=1;rotatable=1;deletable=1;editable=1;connectable=1;container=0;" vertex="1" parent="1">
                    <mxGeometry x="2866" y="-548" width="32" height="32" as="geometry"/>
                </mxCell>
                <mxCell id="1092" value="" style="rounded=0;whiteSpace=wrap;html=1;fillColor=none;movable=1;resizable=1;rotatable=1;deletable=1;editable=1;connectable=1;container=0;" vertex="1" parent="1">
                    <mxGeometry x="2706" y="-516" width="32" height="32" as="geometry"/>
                </mxCell>
                <mxCell id="1093" value="" style="rounded=0;whiteSpace=wrap;html=1;fillColor=none;movable=1;resizable=1;rotatable=1;deletable=1;editable=1;connectable=1;container=0;" vertex="1" parent="1">
                    <mxGeometry x="2738" y="-516" width="32" height="32" as="geometry"/>
                </mxCell>
                <mxCell id="1094" value="" style="rounded=0;whiteSpace=wrap;html=1;fillColor=none;movable=1;resizable=1;rotatable=1;deletable=1;editable=1;connectable=1;container=0;" vertex="1" parent="1">
                    <mxGeometry x="2706" y="-484" width="32" height="32" as="geometry"/>
                </mxCell>
                <mxCell id="1095" value="" style="rounded=0;whiteSpace=wrap;html=1;fillColor=none;movable=1;resizable=1;rotatable=1;deletable=1;editable=1;connectable=1;container=0;" vertex="1" parent="1">
                    <mxGeometry x="2738" y="-484" width="32" height="32" as="geometry"/>
                </mxCell>
                <mxCell id="1096" value="" style="rounded=0;whiteSpace=wrap;html=1;fillColor=none;movable=1;resizable=1;rotatable=1;deletable=1;editable=1;connectable=1;container=0;" vertex="1" parent="1">
                    <mxGeometry x="2770" y="-516" width="32" height="32" as="geometry"/>
                </mxCell>
                <mxCell id="1097" value="" style="rounded=0;whiteSpace=wrap;html=1;fillColor=none;movable=1;resizable=1;rotatable=1;deletable=1;editable=1;connectable=1;container=0;" vertex="1" parent="1">
                    <mxGeometry x="2770" y="-484" width="32" height="32" as="geometry"/>
                </mxCell>
                <mxCell id="1098" value="" style="rounded=0;whiteSpace=wrap;html=1;fillColor=none;movable=1;resizable=1;rotatable=1;deletable=1;editable=1;connectable=1;container=0;" vertex="1" parent="1">
                    <mxGeometry x="2706" y="-548" width="32" height="32" as="geometry"/>
                </mxCell>
                <mxCell id="1099" value="" style="rounded=0;whiteSpace=wrap;html=1;fillColor=none;movable=1;resizable=1;rotatable=1;deletable=1;editable=1;connectable=1;container=0;" vertex="1" parent="1">
                    <mxGeometry x="2738" y="-548" width="32" height="32" as="geometry"/>
                </mxCell>
                <mxCell id="1100" value="" style="rounded=0;whiteSpace=wrap;html=1;fillColor=none;movable=1;resizable=1;rotatable=1;deletable=1;editable=1;connectable=1;container=0;" vertex="1" parent="1">
                    <mxGeometry x="2770" y="-548" width="32" height="32" as="geometry"/>
                </mxCell>
                <mxCell id="1101" value="" style="rounded=0;whiteSpace=wrap;html=1;fillColor=none;movable=1;resizable=1;rotatable=1;deletable=1;editable=1;connectable=1;container=0;" vertex="1" parent="1">
                    <mxGeometry x="2706" y="-612" width="32" height="32" as="geometry"/>
                </mxCell>
                <mxCell id="1102" value="" style="rounded=0;whiteSpace=wrap;html=1;fillColor=none;movable=1;resizable=1;rotatable=1;deletable=1;editable=1;connectable=1;container=0;" vertex="1" parent="1">
                    <mxGeometry x="2738" y="-612" width="32" height="32" as="geometry"/>
                </mxCell>
                <mxCell id="1103" value="" style="rounded=0;whiteSpace=wrap;html=1;fillColor=none;movable=1;resizable=1;rotatable=1;deletable=1;editable=1;connectable=1;container=0;" vertex="1" parent="1">
                    <mxGeometry x="2706" y="-580" width="32" height="32" as="geometry"/>
                </mxCell>
                <mxCell id="1104" value="" style="rounded=0;whiteSpace=wrap;html=1;fillColor=none;movable=1;resizable=1;rotatable=1;deletable=1;editable=1;connectable=1;container=0;" vertex="1" parent="1">
                    <mxGeometry x="2738" y="-580" width="32" height="32" as="geometry"/>
                </mxCell>
                <mxCell id="1105" value="" style="rounded=0;whiteSpace=wrap;html=1;fillColor=none;movable=1;resizable=1;rotatable=1;deletable=1;editable=1;connectable=1;container=0;" vertex="1" parent="1">
                    <mxGeometry x="2770" y="-612" width="32" height="32" as="geometry"/>
                </mxCell>
                <mxCell id="1106" value="" style="rounded=0;whiteSpace=wrap;html=1;fillColor=none;movable=1;resizable=1;rotatable=1;deletable=1;editable=1;connectable=1;container=0;" vertex="1" parent="1">
                    <mxGeometry x="2770" y="-580" width="32" height="32" as="geometry"/>
                </mxCell>
                <mxCell id="1107" value="" style="rounded=0;whiteSpace=wrap;html=1;fillColor=none;movable=1;resizable=1;rotatable=1;deletable=1;editable=1;connectable=1;container=0;" vertex="1" parent="1">
                    <mxGeometry x="2706" y="-644" width="32" height="32" as="geometry"/>
                </mxCell>
                <mxCell id="1108" value="" style="rounded=0;whiteSpace=wrap;html=1;fillColor=none;movable=1;resizable=1;rotatable=1;deletable=1;editable=1;connectable=1;container=0;" vertex="1" parent="1">
                    <mxGeometry x="2738" y="-644" width="32" height="32" as="geometry"/>
                </mxCell>
                <mxCell id="1109" value="" style="rounded=0;whiteSpace=wrap;html=1;fillColor=none;movable=1;resizable=1;rotatable=1;deletable=1;editable=1;connectable=1;container=0;" vertex="1" parent="1">
                    <mxGeometry x="2770" y="-644" width="32" height="32" as="geometry"/>
                </mxCell>
                <mxCell id="1110" value="" style="rounded=0;whiteSpace=wrap;html=1;fillColor=none;movable=1;resizable=1;rotatable=1;deletable=1;editable=1;connectable=1;container=0;" vertex="1" parent="1">
                    <mxGeometry x="2802" y="-612" width="32" height="32" as="geometry"/>
                </mxCell>
                <mxCell id="1111" value="" style="rounded=0;whiteSpace=wrap;html=1;fillColor=none;movable=1;resizable=1;rotatable=1;deletable=1;editable=1;connectable=1;container=0;" vertex="1" parent="1">
                    <mxGeometry x="2834" y="-612" width="32" height="32" as="geometry"/>
                </mxCell>
                <mxCell id="1112" value="" style="rounded=0;whiteSpace=wrap;html=1;fillColor=none;movable=1;resizable=1;rotatable=1;deletable=1;editable=1;connectable=1;container=0;" vertex="1" parent="1">
                    <mxGeometry x="2802" y="-580" width="32" height="32" as="geometry"/>
                </mxCell>
                <mxCell id="1113" value="" style="rounded=0;whiteSpace=wrap;html=1;fillColor=none;movable=1;resizable=1;rotatable=1;deletable=1;editable=1;connectable=1;container=0;" vertex="1" parent="1">
                    <mxGeometry x="2834" y="-580" width="32" height="32" as="geometry"/>
                </mxCell>
                <mxCell id="1114" value="" style="rounded=0;whiteSpace=wrap;html=1;fillColor=none;movable=1;resizable=1;rotatable=1;deletable=1;editable=1;connectable=1;container=0;" vertex="1" parent="1">
                    <mxGeometry x="2866" y="-612" width="32" height="32" as="geometry"/>
                </mxCell>
                <mxCell id="1115" value="" style="rounded=0;whiteSpace=wrap;html=1;fillColor=none;movable=1;resizable=1;rotatable=1;deletable=1;editable=1;connectable=1;container=0;" vertex="1" parent="1">
                    <mxGeometry x="2866" y="-580" width="32" height="32" as="geometry"/>
                </mxCell>
                <mxCell id="1116" value="" style="rounded=0;whiteSpace=wrap;html=1;fillColor=none;movable=1;resizable=1;rotatable=1;deletable=1;editable=1;connectable=1;container=0;" vertex="1" parent="1">
                    <mxGeometry x="2802" y="-644" width="32" height="32" as="geometry"/>
                </mxCell>
                <mxCell id="1117" value="" style="rounded=0;whiteSpace=wrap;html=1;fillColor=none;movable=1;resizable=1;rotatable=1;deletable=1;editable=1;connectable=1;container=0;" vertex="1" parent="1">
                    <mxGeometry x="2834" y="-644" width="32" height="32" as="geometry"/>
                </mxCell>
                <mxCell id="1118" value="" style="rounded=0;whiteSpace=wrap;html=1;fillColor=none;movable=1;resizable=1;rotatable=1;deletable=1;editable=1;connectable=1;container=0;" vertex="1" parent="1">
                    <mxGeometry x="2866" y="-644" width="32" height="32" as="geometry"/>
                </mxCell>
                <mxCell id="1119" value="" style="rounded=0;whiteSpace=wrap;html=1;fillColor=none;movable=1;resizable=1;rotatable=1;deletable=1;editable=1;connectable=1;container=0;" vertex="1" parent="1">
                    <mxGeometry x="2610" y="-708" width="32" height="32" as="geometry"/>
                </mxCell>
                <mxCell id="1120" value="" style="rounded=0;whiteSpace=wrap;html=1;fillColor=none;movable=1;resizable=1;rotatable=1;deletable=1;editable=1;connectable=1;container=0;" vertex="1" parent="1">
                    <mxGeometry x="2642" y="-708" width="32" height="32" as="geometry"/>
                </mxCell>
                <mxCell id="1121" value="" style="rounded=0;whiteSpace=wrap;html=1;fillColor=none;movable=1;resizable=1;rotatable=1;deletable=1;editable=1;connectable=1;container=0;" vertex="1" parent="1">
                    <mxGeometry x="2610" y="-676" width="32" height="32" as="geometry"/>
                </mxCell>
                <mxCell id="1122" value="" style="rounded=0;whiteSpace=wrap;html=1;fillColor=none;movable=1;resizable=1;rotatable=1;deletable=1;editable=1;connectable=1;container=0;" vertex="1" parent="1">
                    <mxGeometry x="2642" y="-676" width="32" height="32" as="geometry"/>
                </mxCell>
                <mxCell id="1123" value="" style="rounded=0;whiteSpace=wrap;html=1;fillColor=none;movable=1;resizable=1;rotatable=1;deletable=1;editable=1;connectable=1;container=0;" vertex="1" parent="1">
                    <mxGeometry x="2674" y="-708" width="32" height="32" as="geometry"/>
                </mxCell>
                <mxCell id="1124" value="" style="rounded=0;whiteSpace=wrap;html=1;fillColor=none;movable=1;resizable=1;rotatable=1;deletable=1;editable=1;connectable=1;container=0;" vertex="1" parent="1">
                    <mxGeometry x="2674" y="-676" width="32" height="32" as="geometry"/>
                </mxCell>
                <mxCell id="1125" value="" style="rounded=0;whiteSpace=wrap;html=1;fillColor=none;movable=1;resizable=1;rotatable=1;deletable=1;editable=1;connectable=1;container=0;" vertex="1" parent="1">
                    <mxGeometry x="2610" y="-740" width="32" height="32" as="geometry"/>
                </mxCell>
                <mxCell id="1126" value="" style="rounded=0;whiteSpace=wrap;html=1;fillColor=none;movable=1;resizable=1;rotatable=1;deletable=1;editable=1;connectable=1;container=0;" vertex="1" parent="1">
                    <mxGeometry x="2642" y="-740" width="32" height="32" as="geometry"/>
                </mxCell>
                <mxCell id="1127" value="" style="rounded=0;whiteSpace=wrap;html=1;fillColor=none;movable=1;resizable=1;rotatable=1;deletable=1;editable=1;connectable=1;container=0;" vertex="1" parent="1">
                    <mxGeometry x="2674" y="-740" width="32" height="32" as="geometry"/>
                </mxCell>
                <mxCell id="1128" value="" style="rounded=0;whiteSpace=wrap;html=1;fillColor=none;movable=1;resizable=1;rotatable=1;deletable=1;editable=1;connectable=1;container=0;" vertex="1" parent="1">
                    <mxGeometry x="2514" y="-708" width="32" height="32" as="geometry"/>
                </mxCell>
                <mxCell id="1129" value="" style="rounded=0;whiteSpace=wrap;html=1;fillColor=none;movable=1;resizable=1;rotatable=1;deletable=1;editable=1;connectable=1;container=0;" vertex="1" parent="1">
                    <mxGeometry x="2546" y="-708" width="32" height="32" as="geometry"/>
                </mxCell>
                <mxCell id="1130" value="" style="rounded=0;whiteSpace=wrap;html=1;fillColor=none;movable=1;resizable=1;rotatable=1;deletable=1;editable=1;connectable=1;container=0;" vertex="1" parent="1">
                    <mxGeometry x="2514" y="-676" width="32" height="32" as="geometry"/>
                </mxCell>
                <mxCell id="1131" value="" style="rounded=0;whiteSpace=wrap;html=1;fillColor=none;movable=1;resizable=1;rotatable=1;deletable=1;editable=1;connectable=1;container=0;" vertex="1" parent="1">
                    <mxGeometry x="2546" y="-676" width="32" height="32" as="geometry"/>
                </mxCell>
                <mxCell id="1132" value="" style="rounded=0;whiteSpace=wrap;html=1;fillColor=none;movable=1;resizable=1;rotatable=1;deletable=1;editable=1;connectable=1;container=0;" vertex="1" parent="1">
                    <mxGeometry x="2578" y="-708" width="32" height="32" as="geometry"/>
                </mxCell>
                <mxCell id="1133" value="" style="rounded=0;whiteSpace=wrap;html=1;fillColor=none;movable=1;resizable=1;rotatable=1;deletable=1;editable=1;connectable=1;container=0;" vertex="1" parent="1">
                    <mxGeometry x="2578" y="-676" width="32" height="32" as="geometry"/>
                </mxCell>
                <mxCell id="1134" value="" style="rounded=0;whiteSpace=wrap;html=1;fillColor=none;movable=1;resizable=1;rotatable=1;deletable=1;editable=1;connectable=1;container=0;" vertex="1" parent="1">
                    <mxGeometry x="2514" y="-740" width="32" height="32" as="geometry"/>
                </mxCell>
                <mxCell id="1135" value="" style="rounded=0;whiteSpace=wrap;html=1;fillColor=none;movable=1;resizable=1;rotatable=1;deletable=1;editable=1;connectable=1;container=0;" vertex="1" parent="1">
                    <mxGeometry x="2546" y="-740" width="32" height="32" as="geometry"/>
                </mxCell>
                <mxCell id="1136" value="" style="rounded=0;whiteSpace=wrap;html=1;fillColor=none;movable=1;resizable=1;rotatable=1;deletable=1;editable=1;connectable=1;container=0;" vertex="1" parent="1">
                    <mxGeometry x="2578" y="-740" width="32" height="32" as="geometry"/>
                </mxCell>
                <mxCell id="1137" value="" style="rounded=0;whiteSpace=wrap;html=1;fillColor=none;movable=1;resizable=1;rotatable=1;deletable=1;editable=1;connectable=1;container=0;" vertex="1" parent="1">
                    <mxGeometry x="2514" y="-804" width="32" height="32" as="geometry"/>
                </mxCell>
                <mxCell id="1138" value="" style="rounded=0;whiteSpace=wrap;html=1;fillColor=none;movable=1;resizable=1;rotatable=1;deletable=1;editable=1;connectable=1;container=0;" vertex="1" parent="1">
                    <mxGeometry x="2546" y="-804" width="32" height="32" as="geometry"/>
                </mxCell>
                <mxCell id="1139" value="" style="rounded=0;whiteSpace=wrap;html=1;fillColor=none;movable=1;resizable=1;rotatable=1;deletable=1;editable=1;connectable=1;container=0;" vertex="1" parent="1">
                    <mxGeometry x="2514" y="-772" width="32" height="32" as="geometry"/>
                </mxCell>
                <mxCell id="1140" value="" style="rounded=0;whiteSpace=wrap;html=1;fillColor=none;movable=1;resizable=1;rotatable=1;deletable=1;editable=1;connectable=1;container=0;" vertex="1" parent="1">
                    <mxGeometry x="2546" y="-772" width="32" height="32" as="geometry"/>
                </mxCell>
                <mxCell id="1141" value="" style="rounded=0;whiteSpace=wrap;html=1;fillColor=none;movable=1;resizable=1;rotatable=1;deletable=1;editable=1;connectable=1;container=0;" vertex="1" parent="1">
                    <mxGeometry x="2578" y="-804" width="32" height="32" as="geometry"/>
                </mxCell>
                <mxCell id="1142" value="" style="rounded=0;whiteSpace=wrap;html=1;fillColor=none;movable=1;resizable=1;rotatable=1;deletable=1;editable=1;connectable=1;container=0;" vertex="1" parent="1">
                    <mxGeometry x="2578" y="-772" width="32" height="32" as="geometry"/>
                </mxCell>
                <mxCell id="1143" value="" style="rounded=0;whiteSpace=wrap;html=1;fillColor=none;movable=1;resizable=1;rotatable=1;deletable=1;editable=1;connectable=1;container=0;" vertex="1" parent="1">
                    <mxGeometry x="2514" y="-836" width="32" height="32" as="geometry"/>
                </mxCell>
                <mxCell id="1144" value="" style="rounded=0;whiteSpace=wrap;html=1;fillColor=none;movable=1;resizable=1;rotatable=1;deletable=1;editable=1;connectable=1;container=0;" vertex="1" parent="1">
                    <mxGeometry x="2546" y="-836" width="32" height="32" as="geometry"/>
                </mxCell>
                <mxCell id="1145" value="" style="rounded=0;whiteSpace=wrap;html=1;fillColor=none;movable=1;resizable=1;rotatable=1;deletable=1;editable=1;connectable=1;container=0;" vertex="1" parent="1">
                    <mxGeometry x="2578" y="-836" width="32" height="32" as="geometry"/>
                </mxCell>
                <mxCell id="1146" value="" style="rounded=0;whiteSpace=wrap;html=1;fillColor=none;movable=1;resizable=1;rotatable=1;deletable=1;editable=1;connectable=1;container=0;" vertex="1" parent="1">
                    <mxGeometry x="2610" y="-804" width="32" height="32" as="geometry"/>
                </mxCell>
                <mxCell id="1147" value="" style="rounded=0;whiteSpace=wrap;html=1;fillColor=none;movable=1;resizable=1;rotatable=1;deletable=1;editable=1;connectable=1;container=0;" vertex="1" parent="1">
                    <mxGeometry x="2642" y="-804" width="32" height="32" as="geometry"/>
                </mxCell>
                <mxCell id="1148" value="" style="rounded=0;whiteSpace=wrap;html=1;fillColor=none;movable=1;resizable=1;rotatable=1;deletable=1;editable=1;connectable=1;container=0;" vertex="1" parent="1">
                    <mxGeometry x="2610" y="-772" width="32" height="32" as="geometry"/>
                </mxCell>
                <mxCell id="1149" value="" style="rounded=0;whiteSpace=wrap;html=1;fillColor=none;movable=1;resizable=1;rotatable=1;deletable=1;editable=1;connectable=1;container=0;" vertex="1" parent="1">
                    <mxGeometry x="2642" y="-772" width="32" height="32" as="geometry"/>
                </mxCell>
                <mxCell id="1150" value="" style="rounded=0;whiteSpace=wrap;html=1;fillColor=none;movable=1;resizable=1;rotatable=1;deletable=1;editable=1;connectable=1;container=0;" vertex="1" parent="1">
                    <mxGeometry x="2674" y="-804" width="32" height="32" as="geometry"/>
                </mxCell>
                <mxCell id="1151" value="" style="rounded=0;whiteSpace=wrap;html=1;fillColor=none;movable=1;resizable=1;rotatable=1;deletable=1;editable=1;connectable=1;container=0;" vertex="1" parent="1">
                    <mxGeometry x="2674" y="-772" width="32" height="32" as="geometry"/>
                </mxCell>
                <mxCell id="1152" value="" style="rounded=0;whiteSpace=wrap;html=1;fillColor=none;movable=1;resizable=1;rotatable=1;deletable=1;editable=1;connectable=1;container=0;" vertex="1" parent="1">
                    <mxGeometry x="2610" y="-836" width="32" height="32" as="geometry"/>
                </mxCell>
                <mxCell id="1153" value="" style="rounded=0;whiteSpace=wrap;html=1;fillColor=none;movable=1;resizable=1;rotatable=1;deletable=1;editable=1;connectable=1;container=0;" vertex="1" parent="1">
                    <mxGeometry x="2642" y="-836" width="32" height="32" as="geometry"/>
                </mxCell>
                <mxCell id="1154" value="" style="rounded=0;whiteSpace=wrap;html=1;fillColor=none;movable=1;resizable=1;rotatable=1;deletable=1;editable=1;connectable=1;container=0;" vertex="1" parent="1">
                    <mxGeometry x="2674" y="-836" width="32" height="32" as="geometry"/>
                </mxCell>
                <mxCell id="1155" value="" style="rounded=0;whiteSpace=wrap;html=1;fillColor=none;movable=1;resizable=1;rotatable=1;deletable=1;editable=1;connectable=1;container=0;" vertex="1" parent="1">
                    <mxGeometry x="2802" y="-708" width="32" height="32" as="geometry"/>
                </mxCell>
                <mxCell id="1156" value="" style="rounded=0;whiteSpace=wrap;html=1;fillColor=none;movable=1;resizable=1;rotatable=1;deletable=1;editable=1;connectable=1;container=0;" vertex="1" parent="1">
                    <mxGeometry x="2834" y="-708" width="32" height="32" as="geometry"/>
                </mxCell>
                <mxCell id="1157" value="" style="rounded=0;whiteSpace=wrap;html=1;fillColor=none;movable=1;resizable=1;rotatable=1;deletable=1;editable=1;connectable=1;container=0;" vertex="1" parent="1">
                    <mxGeometry x="2802" y="-676" width="32" height="32" as="geometry"/>
                </mxCell>
                <mxCell id="1158" value="" style="rounded=0;whiteSpace=wrap;html=1;fillColor=none;movable=1;resizable=1;rotatable=1;deletable=1;editable=1;connectable=1;container=0;" vertex="1" parent="1">
                    <mxGeometry x="2834" y="-676" width="32" height="32" as="geometry"/>
                </mxCell>
                <mxCell id="1159" value="" style="rounded=0;whiteSpace=wrap;html=1;fillColor=none;movable=1;resizable=1;rotatable=1;deletable=1;editable=1;connectable=1;container=0;" vertex="1" parent="1">
                    <mxGeometry x="2866" y="-708" width="32" height="32" as="geometry"/>
                </mxCell>
                <mxCell id="1160" value="" style="rounded=0;whiteSpace=wrap;html=1;fillColor=none;movable=1;resizable=1;rotatable=1;deletable=1;editable=1;connectable=1;container=0;" vertex="1" parent="1">
                    <mxGeometry x="2866" y="-676" width="32" height="32" as="geometry"/>
                </mxCell>
                <mxCell id="1161" value="" style="rounded=0;whiteSpace=wrap;html=1;fillColor=none;movable=1;resizable=1;rotatable=1;deletable=1;editable=1;connectable=1;container=0;" vertex="1" parent="1">
                    <mxGeometry x="2802" y="-740" width="32" height="32" as="geometry"/>
                </mxCell>
                <mxCell id="1162" value="" style="rounded=0;whiteSpace=wrap;html=1;fillColor=none;movable=1;resizable=1;rotatable=1;deletable=1;editable=1;connectable=1;container=0;" vertex="1" parent="1">
                    <mxGeometry x="2834" y="-740" width="32" height="32" as="geometry"/>
                </mxCell>
                <mxCell id="1163" value="" style="rounded=0;whiteSpace=wrap;html=1;fillColor=none;movable=1;resizable=1;rotatable=1;deletable=1;editable=1;connectable=1;container=0;" vertex="1" parent="1">
                    <mxGeometry x="2866" y="-740" width="32" height="32" as="geometry"/>
                </mxCell>
                <mxCell id="1164" value="" style="rounded=0;whiteSpace=wrap;html=1;fillColor=none;movable=1;resizable=1;rotatable=1;deletable=1;editable=1;connectable=1;container=0;" vertex="1" parent="1">
                    <mxGeometry x="2706" y="-708" width="32" height="32" as="geometry"/>
                </mxCell>
                <mxCell id="1165" value="" style="rounded=0;whiteSpace=wrap;html=1;fillColor=none;movable=1;resizable=1;rotatable=1;deletable=1;editable=1;connectable=1;container=0;" vertex="1" parent="1">
                    <mxGeometry x="2738" y="-708" width="32" height="32" as="geometry"/>
                </mxCell>
                <mxCell id="1166" value="" style="rounded=0;whiteSpace=wrap;html=1;fillColor=none;movable=1;resizable=1;rotatable=1;deletable=1;editable=1;connectable=1;container=0;" vertex="1" parent="1">
                    <mxGeometry x="2706" y="-676" width="32" height="32" as="geometry"/>
                </mxCell>
                <mxCell id="1167" value="" style="rounded=0;whiteSpace=wrap;html=1;fillColor=none;movable=1;resizable=1;rotatable=1;deletable=1;editable=1;connectable=1;container=0;" vertex="1" parent="1">
                    <mxGeometry x="2738" y="-676" width="32" height="32" as="geometry"/>
                </mxCell>
                <mxCell id="1168" value="" style="rounded=0;whiteSpace=wrap;html=1;fillColor=none;movable=1;resizable=1;rotatable=1;deletable=1;editable=1;connectable=1;container=0;" vertex="1" parent="1">
                    <mxGeometry x="2770" y="-708" width="32" height="32" as="geometry"/>
                </mxCell>
                <mxCell id="1169" value="" style="rounded=0;whiteSpace=wrap;html=1;fillColor=none;movable=1;resizable=1;rotatable=1;deletable=1;editable=1;connectable=1;container=0;" vertex="1" parent="1">
                    <mxGeometry x="2770" y="-676" width="32" height="32" as="geometry"/>
                </mxCell>
                <mxCell id="1170" value="" style="rounded=0;whiteSpace=wrap;html=1;fillColor=none;movable=1;resizable=1;rotatable=1;deletable=1;editable=1;connectable=1;container=0;" vertex="1" parent="1">
                    <mxGeometry x="2706" y="-740" width="32" height="32" as="geometry"/>
                </mxCell>
                <mxCell id="1171" value="" style="rounded=0;whiteSpace=wrap;html=1;fillColor=none;movable=1;resizable=1;rotatable=1;deletable=1;editable=1;connectable=1;container=0;" vertex="1" parent="1">
                    <mxGeometry x="2738" y="-740" width="32" height="32" as="geometry"/>
                </mxCell>
                <mxCell id="1172" value="" style="rounded=0;whiteSpace=wrap;html=1;fillColor=none;movable=1;resizable=1;rotatable=1;deletable=1;editable=1;connectable=1;container=0;" vertex="1" parent="1">
                    <mxGeometry x="2770" y="-740" width="32" height="32" as="geometry"/>
                </mxCell>
                <mxCell id="1173" value="" style="rounded=0;whiteSpace=wrap;html=1;fillColor=none;movable=1;resizable=1;rotatable=1;deletable=1;editable=1;connectable=1;container=0;" vertex="1" parent="1">
                    <mxGeometry x="2706" y="-804" width="32" height="32" as="geometry"/>
                </mxCell>
                <mxCell id="1174" value="" style="rounded=0;whiteSpace=wrap;html=1;fillColor=none;movable=1;resizable=1;rotatable=1;deletable=1;editable=1;connectable=1;container=0;" vertex="1" parent="1">
                    <mxGeometry x="2738" y="-804" width="32" height="32" as="geometry"/>
                </mxCell>
                <mxCell id="1175" value="" style="rounded=0;whiteSpace=wrap;html=1;fillColor=none;movable=1;resizable=1;rotatable=1;deletable=1;editable=1;connectable=1;container=0;" vertex="1" parent="1">
                    <mxGeometry x="2706" y="-772" width="32" height="32" as="geometry"/>
                </mxCell>
                <mxCell id="1176" value="" style="rounded=0;whiteSpace=wrap;html=1;fillColor=none;movable=1;resizable=1;rotatable=1;deletable=1;editable=1;connectable=1;container=0;" vertex="1" parent="1">
                    <mxGeometry x="2738" y="-772" width="32" height="32" as="geometry"/>
                </mxCell>
                <mxCell id="1177" value="" style="rounded=0;whiteSpace=wrap;html=1;fillColor=none;movable=1;resizable=1;rotatable=1;deletable=1;editable=1;connectable=1;container=0;" vertex="1" parent="1">
                    <mxGeometry x="2770" y="-804" width="32" height="32" as="geometry"/>
                </mxCell>
                <mxCell id="1178" value="" style="rounded=0;whiteSpace=wrap;html=1;fillColor=none;movable=1;resizable=1;rotatable=1;deletable=1;editable=1;connectable=1;container=0;" vertex="1" parent="1">
                    <mxGeometry x="2770" y="-772" width="32" height="32" as="geometry"/>
                </mxCell>
                <mxCell id="1179" value="" style="rounded=0;whiteSpace=wrap;html=1;fillColor=none;movable=1;resizable=1;rotatable=1;deletable=1;editable=1;connectable=1;container=0;" vertex="1" parent="1">
                    <mxGeometry x="2706" y="-836" width="32" height="32" as="geometry"/>
                </mxCell>
                <mxCell id="1180" value="" style="rounded=0;whiteSpace=wrap;html=1;fillColor=none;movable=1;resizable=1;rotatable=1;deletable=1;editable=1;connectable=1;container=0;" vertex="1" parent="1">
                    <mxGeometry x="2738" y="-836" width="32" height="32" as="geometry"/>
                </mxCell>
                <mxCell id="1181" value="" style="rounded=0;whiteSpace=wrap;html=1;fillColor=none;movable=1;resizable=1;rotatable=1;deletable=1;editable=1;connectable=1;container=0;" vertex="1" parent="1">
                    <mxGeometry x="2770" y="-836" width="32" height="32" as="geometry"/>
                </mxCell>
                <mxCell id="1182" value="" style="rounded=0;whiteSpace=wrap;html=1;fillColor=none;movable=1;resizable=1;rotatable=1;deletable=1;editable=1;connectable=1;container=0;" vertex="1" parent="1">
                    <mxGeometry x="2802" y="-804" width="32" height="32" as="geometry"/>
                </mxCell>
                <mxCell id="1183" value="" style="rounded=0;whiteSpace=wrap;html=1;fillColor=none;movable=1;resizable=1;rotatable=1;deletable=1;editable=1;connectable=1;container=0;" vertex="1" parent="1">
                    <mxGeometry x="2834" y="-804" width="32" height="32" as="geometry"/>
                </mxCell>
                <mxCell id="1184" value="" style="rounded=0;whiteSpace=wrap;html=1;fillColor=none;movable=1;resizable=1;rotatable=1;deletable=1;editable=1;connectable=1;container=0;" vertex="1" parent="1">
                    <mxGeometry x="2802" y="-772" width="32" height="32" as="geometry"/>
                </mxCell>
                <mxCell id="1185" value="" style="rounded=0;whiteSpace=wrap;html=1;fillColor=none;movable=1;resizable=1;rotatable=1;deletable=1;editable=1;connectable=1;container=0;" vertex="1" parent="1">
                    <mxGeometry x="2834" y="-772" width="32" height="32" as="geometry"/>
                </mxCell>
                <mxCell id="1186" value="" style="rounded=0;whiteSpace=wrap;html=1;fillColor=none;movable=1;resizable=1;rotatable=1;deletable=1;editable=1;connectable=1;container=0;" vertex="1" parent="1">
                    <mxGeometry x="2866" y="-804" width="32" height="32" as="geometry"/>
                </mxCell>
                <mxCell id="1187" value="" style="rounded=0;whiteSpace=wrap;html=1;fillColor=none;movable=1;resizable=1;rotatable=1;deletable=1;editable=1;connectable=1;container=0;" vertex="1" parent="1">
                    <mxGeometry x="2866" y="-772" width="32" height="32" as="geometry"/>
                </mxCell>
                <mxCell id="1188" value="" style="rounded=0;whiteSpace=wrap;html=1;fillColor=none;movable=1;resizable=1;rotatable=1;deletable=1;editable=1;connectable=1;container=0;" vertex="1" parent="1">
                    <mxGeometry x="2802" y="-836" width="32" height="32" as="geometry"/>
                </mxCell>
                <mxCell id="1189" value="" style="rounded=0;whiteSpace=wrap;html=1;fillColor=none;movable=1;resizable=1;rotatable=1;deletable=1;editable=1;connectable=1;container=0;" vertex="1" parent="1">
                    <mxGeometry x="2834" y="-836" width="32" height="32" as="geometry"/>
                </mxCell>
                <mxCell id="1190" value="" style="rounded=0;whiteSpace=wrap;html=1;fillColor=none;movable=1;resizable=1;rotatable=1;deletable=1;editable=1;connectable=1;container=0;" vertex="1" parent="1">
                    <mxGeometry x="2866" y="-836" width="32" height="32" as="geometry"/>
                </mxCell>
                <mxCell id="1191" value="" style="rounded=0;whiteSpace=wrap;html=1;fillColor=none;movable=1;resizable=1;rotatable=1;deletable=1;editable=1;connectable=1;container=0;" vertex="1" parent="1">
                    <mxGeometry x="2226" y="-900" width="32" height="32" as="geometry"/>
                </mxCell>
                <mxCell id="1192" value="" style="rounded=0;whiteSpace=wrap;html=1;fillColor=none;movable=1;resizable=1;rotatable=1;deletable=1;editable=1;connectable=1;container=0;" vertex="1" parent="1">
                    <mxGeometry x="2258" y="-900" width="32" height="32" as="geometry"/>
                </mxCell>
                <mxCell id="1193" value="" style="rounded=0;whiteSpace=wrap;html=1;fillColor=none;movable=1;resizable=1;rotatable=1;deletable=1;editable=1;connectable=1;container=0;" vertex="1" parent="1">
                    <mxGeometry x="2226" y="-868" width="32" height="32" as="geometry"/>
                </mxCell>
                <mxCell id="1194" value="" style="rounded=0;whiteSpace=wrap;html=1;fillColor=none;movable=1;resizable=1;rotatable=1;deletable=1;editable=1;connectable=1;container=0;" vertex="1" parent="1">
                    <mxGeometry x="2258" y="-868" width="32" height="32" as="geometry"/>
                </mxCell>
                <mxCell id="1195" value="" style="rounded=0;whiteSpace=wrap;html=1;fillColor=none;movable=1;resizable=1;rotatable=1;deletable=1;editable=1;connectable=1;container=0;" vertex="1" parent="1">
                    <mxGeometry x="2290" y="-900" width="32" height="32" as="geometry"/>
                </mxCell>
                <mxCell id="1196" value="" style="rounded=0;whiteSpace=wrap;html=1;fillColor=none;movable=1;resizable=1;rotatable=1;deletable=1;editable=1;connectable=1;container=0;" vertex="1" parent="1">
                    <mxGeometry x="2290" y="-868" width="32" height="32" as="geometry"/>
                </mxCell>
                <mxCell id="1197" value="" style="rounded=0;whiteSpace=wrap;html=1;fillColor=none;movable=1;resizable=1;rotatable=1;deletable=1;editable=1;connectable=1;container=0;" vertex="1" parent="1">
                    <mxGeometry x="2226" y="-932" width="32" height="32" as="geometry"/>
                </mxCell>
                <mxCell id="1198" value="" style="rounded=0;whiteSpace=wrap;html=1;fillColor=none;movable=1;resizable=1;rotatable=1;deletable=1;editable=1;connectable=1;container=0;" vertex="1" parent="1">
                    <mxGeometry x="2258" y="-932" width="32" height="32" as="geometry"/>
                </mxCell>
                <mxCell id="1199" value="" style="rounded=0;whiteSpace=wrap;html=1;fillColor=none;movable=1;resizable=1;rotatable=1;deletable=1;editable=1;connectable=1;container=0;" vertex="1" parent="1">
                    <mxGeometry x="2290" y="-932" width="32" height="32" as="geometry"/>
                </mxCell>
                <mxCell id="1200" value="" style="rounded=0;whiteSpace=wrap;html=1;fillColor=none;movable=1;resizable=1;rotatable=1;deletable=1;editable=1;connectable=1;container=0;" vertex="1" parent="1">
                    <mxGeometry x="2130" y="-900" width="32" height="32" as="geometry"/>
                </mxCell>
                <mxCell id="1201" value="" style="rounded=0;whiteSpace=wrap;html=1;fillColor=none;movable=1;resizable=1;rotatable=1;deletable=1;editable=1;connectable=1;container=0;" vertex="1" parent="1">
                    <mxGeometry x="2162" y="-900" width="32" height="32" as="geometry"/>
                </mxCell>
                <mxCell id="1202" value="" style="rounded=0;whiteSpace=wrap;html=1;fillColor=none;movable=1;resizable=1;rotatable=1;deletable=1;editable=1;connectable=1;container=0;" vertex="1" parent="1">
                    <mxGeometry x="2130" y="-868" width="32" height="32" as="geometry"/>
                </mxCell>
                <mxCell id="1203" value="" style="rounded=0;whiteSpace=wrap;html=1;fillColor=none;movable=1;resizable=1;rotatable=1;deletable=1;editable=1;connectable=1;container=0;" vertex="1" parent="1">
                    <mxGeometry x="2162" y="-868" width="32" height="32" as="geometry"/>
                </mxCell>
                <mxCell id="1204" value="" style="rounded=0;whiteSpace=wrap;html=1;fillColor=none;movable=1;resizable=1;rotatable=1;deletable=1;editable=1;connectable=1;container=0;" vertex="1" parent="1">
                    <mxGeometry x="2194" y="-900" width="32" height="32" as="geometry"/>
                </mxCell>
                <mxCell id="1205" value="" style="rounded=0;whiteSpace=wrap;html=1;fillColor=none;movable=1;resizable=1;rotatable=1;deletable=1;editable=1;connectable=1;container=0;" vertex="1" parent="1">
                    <mxGeometry x="2194" y="-868" width="32" height="32" as="geometry"/>
                </mxCell>
                <mxCell id="1206" value="" style="rounded=0;whiteSpace=wrap;html=1;fillColor=none;movable=1;resizable=1;rotatable=1;deletable=1;editable=1;connectable=1;container=0;" vertex="1" parent="1">
                    <mxGeometry x="2130" y="-932" width="32" height="32" as="geometry"/>
                </mxCell>
                <mxCell id="1207" value="" style="rounded=0;whiteSpace=wrap;html=1;fillColor=none;movable=1;resizable=1;rotatable=1;deletable=1;editable=1;connectable=1;container=0;" vertex="1" parent="1">
                    <mxGeometry x="2162" y="-932" width="32" height="32" as="geometry"/>
                </mxCell>
                <mxCell id="1208" value="" style="rounded=0;whiteSpace=wrap;html=1;fillColor=none;movable=1;resizable=1;rotatable=1;deletable=1;editable=1;connectable=1;container=0;" vertex="1" parent="1">
                    <mxGeometry x="2194" y="-932" width="32" height="32" as="geometry"/>
                </mxCell>
                <mxCell id="1209" value="" style="rounded=0;whiteSpace=wrap;html=1;fillColor=none;movable=1;resizable=1;rotatable=1;deletable=1;editable=1;connectable=1;container=0;" vertex="1" parent="1">
                    <mxGeometry x="2130" y="-996" width="32" height="32" as="geometry"/>
                </mxCell>
                <mxCell id="1210" value="" style="rounded=0;whiteSpace=wrap;html=1;fillColor=none;movable=1;resizable=1;rotatable=1;deletable=1;editable=1;connectable=1;container=0;" vertex="1" parent="1">
                    <mxGeometry x="2162" y="-996" width="32" height="32" as="geometry"/>
                </mxCell>
                <mxCell id="1211" value="" style="rounded=0;whiteSpace=wrap;html=1;fillColor=none;movable=1;resizable=1;rotatable=1;deletable=1;editable=1;connectable=1;container=0;" vertex="1" parent="1">
                    <mxGeometry x="2130" y="-964" width="32" height="32" as="geometry"/>
                </mxCell>
                <mxCell id="1212" value="" style="rounded=0;whiteSpace=wrap;html=1;fillColor=none;movable=1;resizable=1;rotatable=1;deletable=1;editable=1;connectable=1;container=0;" vertex="1" parent="1">
                    <mxGeometry x="2162" y="-964" width="32" height="32" as="geometry"/>
                </mxCell>
                <mxCell id="1213" value="" style="rounded=0;whiteSpace=wrap;html=1;fillColor=none;movable=1;resizable=1;rotatable=1;deletable=1;editable=1;connectable=1;container=0;" vertex="1" parent="1">
                    <mxGeometry x="2194" y="-996" width="32" height="32" as="geometry"/>
                </mxCell>
                <mxCell id="1214" value="" style="rounded=0;whiteSpace=wrap;html=1;fillColor=none;movable=1;resizable=1;rotatable=1;deletable=1;editable=1;connectable=1;container=0;" vertex="1" parent="1">
                    <mxGeometry x="2194" y="-964" width="32" height="32" as="geometry"/>
                </mxCell>
                <mxCell id="1218" value="" style="rounded=0;whiteSpace=wrap;html=1;fillColor=none;movable=1;resizable=1;rotatable=1;deletable=1;editable=1;connectable=1;container=0;" vertex="1" parent="1">
                    <mxGeometry x="2226" y="-996" width="32" height="32" as="geometry"/>
                </mxCell>
                <mxCell id="1219" value="" style="rounded=0;whiteSpace=wrap;html=1;fillColor=none;movable=1;resizable=1;rotatable=1;deletable=1;editable=1;connectable=1;container=0;" vertex="1" parent="1">
                    <mxGeometry x="2258" y="-996" width="32" height="32" as="geometry"/>
                </mxCell>
                <mxCell id="1220" value="" style="rounded=0;whiteSpace=wrap;html=1;fillColor=none;movable=1;resizable=1;rotatable=1;deletable=1;editable=1;connectable=1;container=0;" vertex="1" parent="1">
                    <mxGeometry x="2226" y="-964" width="32" height="32" as="geometry"/>
                </mxCell>
                <mxCell id="1221" value="" style="rounded=0;whiteSpace=wrap;html=1;fillColor=none;movable=1;resizable=1;rotatable=1;deletable=1;editable=1;connectable=1;container=0;" vertex="1" parent="1">
                    <mxGeometry x="2258" y="-964" width="32" height="32" as="geometry"/>
                </mxCell>
                <mxCell id="1222" value="" style="rounded=0;whiteSpace=wrap;html=1;fillColor=none;movable=1;resizable=1;rotatable=1;deletable=1;editable=1;connectable=1;container=0;" vertex="1" parent="1">
                    <mxGeometry x="2290" y="-996" width="32" height="32" as="geometry"/>
                </mxCell>
                <mxCell id="1223" value="" style="rounded=0;whiteSpace=wrap;html=1;fillColor=none;movable=1;resizable=1;rotatable=1;deletable=1;editable=1;connectable=1;container=0;" vertex="1" parent="1">
                    <mxGeometry x="2290" y="-964" width="32" height="32" as="geometry"/>
                </mxCell>
                <mxCell id="1227" value="" style="rounded=0;whiteSpace=wrap;html=1;fillColor=none;movable=1;resizable=1;rotatable=1;deletable=1;editable=1;connectable=1;container=0;" vertex="1" parent="1">
                    <mxGeometry x="2418" y="-900" width="32" height="32" as="geometry"/>
                </mxCell>
                <mxCell id="1228" value="" style="rounded=0;whiteSpace=wrap;html=1;fillColor=none;movable=1;resizable=1;rotatable=1;deletable=1;editable=1;connectable=1;container=0;" vertex="1" parent="1">
                    <mxGeometry x="2450" y="-900" width="32" height="32" as="geometry"/>
                </mxCell>
                <mxCell id="1229" value="" style="rounded=0;whiteSpace=wrap;html=1;fillColor=none;movable=1;resizable=1;rotatable=1;deletable=1;editable=1;connectable=1;container=0;" vertex="1" parent="1">
                    <mxGeometry x="2418" y="-868" width="32" height="32" as="geometry"/>
                </mxCell>
                <mxCell id="1230" value="" style="rounded=0;whiteSpace=wrap;html=1;fillColor=none;movable=1;resizable=1;rotatable=1;deletable=1;editable=1;connectable=1;container=0;" vertex="1" parent="1">
                    <mxGeometry x="2450" y="-868" width="32" height="32" as="geometry"/>
                </mxCell>
                <mxCell id="1231" value="" style="rounded=0;whiteSpace=wrap;html=1;fillColor=none;movable=1;resizable=1;rotatable=1;deletable=1;editable=1;connectable=1;container=0;" vertex="1" parent="1">
                    <mxGeometry x="2482" y="-900" width="32" height="32" as="geometry"/>
                </mxCell>
                <mxCell id="1232" value="" style="rounded=0;whiteSpace=wrap;html=1;fillColor=none;movable=1;resizable=1;rotatable=1;deletable=1;editable=1;connectable=1;container=0;" vertex="1" parent="1">
                    <mxGeometry x="2482" y="-868" width="32" height="32" as="geometry"/>
                </mxCell>
                <mxCell id="1233" value="" style="rounded=0;whiteSpace=wrap;html=1;fillColor=none;movable=1;resizable=1;rotatable=1;deletable=1;editable=1;connectable=1;container=0;" vertex="1" parent="1">
                    <mxGeometry x="2418" y="-932" width="32" height="32" as="geometry"/>
                </mxCell>
                <mxCell id="1234" value="" style="rounded=0;whiteSpace=wrap;html=1;fillColor=none;movable=1;resizable=1;rotatable=1;deletable=1;editable=1;connectable=1;container=0;" vertex="1" parent="1">
                    <mxGeometry x="2450" y="-932" width="32" height="32" as="geometry"/>
                </mxCell>
                <mxCell id="1235" value="" style="rounded=0;whiteSpace=wrap;html=1;fillColor=none;movable=1;resizable=1;rotatable=1;deletable=1;editable=1;connectable=1;container=0;" vertex="1" parent="1">
                    <mxGeometry x="2482" y="-932" width="32" height="32" as="geometry"/>
                </mxCell>
                <mxCell id="1236" value="" style="rounded=0;whiteSpace=wrap;html=1;fillColor=none;movable=1;resizable=1;rotatable=1;deletable=1;editable=1;connectable=1;container=0;" vertex="1" parent="1">
                    <mxGeometry x="2322" y="-900" width="32" height="32" as="geometry"/>
                </mxCell>
                <mxCell id="1237" value="" style="rounded=0;whiteSpace=wrap;html=1;fillColor=none;movable=1;resizable=1;rotatable=1;deletable=1;editable=1;connectable=1;container=0;" vertex="1" parent="1">
                    <mxGeometry x="2354" y="-900" width="32" height="32" as="geometry"/>
                </mxCell>
                <mxCell id="1238" value="" style="rounded=0;whiteSpace=wrap;html=1;fillColor=none;movable=1;resizable=1;rotatable=1;deletable=1;editable=1;connectable=1;container=0;" vertex="1" parent="1">
                    <mxGeometry x="2322" y="-868" width="32" height="32" as="geometry"/>
                </mxCell>
                <mxCell id="1239" value="" style="rounded=0;whiteSpace=wrap;html=1;fillColor=none;movable=1;resizable=1;rotatable=1;deletable=1;editable=1;connectable=1;container=0;" vertex="1" parent="1">
                    <mxGeometry x="2354" y="-868" width="32" height="32" as="geometry"/>
                </mxCell>
                <mxCell id="1240" value="" style="rounded=0;whiteSpace=wrap;html=1;fillColor=none;movable=1;resizable=1;rotatable=1;deletable=1;editable=1;connectable=1;container=0;" vertex="1" parent="1">
                    <mxGeometry x="2386" y="-900" width="32" height="32" as="geometry"/>
                </mxCell>
                <mxCell id="1241" value="" style="rounded=0;whiteSpace=wrap;html=1;fillColor=none;movable=1;resizable=1;rotatable=1;deletable=1;editable=1;connectable=1;container=0;" vertex="1" parent="1">
                    <mxGeometry x="2386" y="-868" width="32" height="32" as="geometry"/>
                </mxCell>
                <mxCell id="1242" value="" style="rounded=0;whiteSpace=wrap;html=1;fillColor=none;movable=1;resizable=1;rotatable=1;deletable=1;editable=1;connectable=1;container=0;" vertex="1" parent="1">
                    <mxGeometry x="2322" y="-932" width="32" height="32" as="geometry"/>
                </mxCell>
                <mxCell id="1243" value="" style="rounded=0;whiteSpace=wrap;html=1;fillColor=none;movable=1;resizable=1;rotatable=1;deletable=1;editable=1;connectable=1;container=0;" vertex="1" parent="1">
                    <mxGeometry x="2354" y="-932" width="32" height="32" as="geometry"/>
                </mxCell>
                <mxCell id="1244" value="" style="rounded=0;whiteSpace=wrap;html=1;fillColor=none;movable=1;resizable=1;rotatable=1;deletable=1;editable=1;connectable=1;container=0;" vertex="1" parent="1">
                    <mxGeometry x="2386" y="-932" width="32" height="32" as="geometry"/>
                </mxCell>
                <mxCell id="1245" value="" style="rounded=0;whiteSpace=wrap;html=1;fillColor=none;movable=1;resizable=1;rotatable=1;deletable=1;editable=1;connectable=1;container=0;" vertex="1" parent="1">
                    <mxGeometry x="2322" y="-996" width="32" height="32" as="geometry"/>
                </mxCell>
                <mxCell id="1246" value="" style="rounded=0;whiteSpace=wrap;html=1;fillColor=none;movable=1;resizable=1;rotatable=1;deletable=1;editable=1;connectable=1;container=0;" vertex="1" parent="1">
                    <mxGeometry x="2354" y="-996" width="32" height="32" as="geometry"/>
                </mxCell>
                <mxCell id="1247" value="" style="rounded=0;whiteSpace=wrap;html=1;fillColor=none;movable=1;resizable=1;rotatable=1;deletable=1;editable=1;connectable=1;container=0;" vertex="1" parent="1">
                    <mxGeometry x="2322" y="-964" width="32" height="32" as="geometry"/>
                </mxCell>
                <mxCell id="1248" value="" style="rounded=0;whiteSpace=wrap;html=1;fillColor=none;movable=1;resizable=1;rotatable=1;deletable=1;editable=1;connectable=1;container=0;" vertex="1" parent="1">
                    <mxGeometry x="2354" y="-964" width="32" height="32" as="geometry"/>
                </mxCell>
                <mxCell id="1250" value="" style="rounded=0;whiteSpace=wrap;html=1;fillColor=none;movable=1;resizable=1;rotatable=1;deletable=1;editable=1;connectable=1;container=0;" vertex="1" parent="1">
                    <mxGeometry x="2386" y="-964" width="32" height="32" as="geometry"/>
                </mxCell>
                <mxCell id="1254" value="" style="rounded=0;whiteSpace=wrap;html=1;fillColor=none;movable=1;resizable=1;rotatable=1;deletable=1;editable=1;connectable=1;container=0;" vertex="1" parent="1">
                    <mxGeometry x="2418" y="-996" width="32" height="32" as="geometry"/>
                </mxCell>
                <mxCell id="1255" value="" style="rounded=0;whiteSpace=wrap;html=1;fillColor=none;movable=1;resizable=1;rotatable=1;deletable=1;editable=1;connectable=1;container=0;" vertex="1" parent="1">
                    <mxGeometry x="2450" y="-996" width="32" height="32" as="geometry"/>
                </mxCell>
                <mxCell id="1256" value="" style="rounded=0;whiteSpace=wrap;html=1;fillColor=none;movable=1;resizable=1;rotatable=1;deletable=1;editable=1;connectable=1;container=0;" vertex="1" parent="1">
                    <mxGeometry x="2418" y="-964" width="32" height="32" as="geometry"/>
                </mxCell>
                <mxCell id="1257" value="" style="rounded=0;whiteSpace=wrap;html=1;fillColor=none;movable=1;resizable=1;rotatable=1;deletable=1;editable=1;connectable=1;container=0;" vertex="1" parent="1">
                    <mxGeometry x="2450" y="-964" width="32" height="32" as="geometry"/>
                </mxCell>
                <mxCell id="1258" value="" style="rounded=0;whiteSpace=wrap;html=1;fillColor=none;movable=1;resizable=1;rotatable=1;deletable=1;editable=1;connectable=1;container=0;" vertex="1" parent="1">
                    <mxGeometry x="2482" y="-996" width="32" height="32" as="geometry"/>
                </mxCell>
                <mxCell id="1259" value="" style="rounded=0;whiteSpace=wrap;html=1;fillColor=none;movable=1;resizable=1;rotatable=1;deletable=1;editable=1;connectable=1;container=0;" vertex="1" parent="1">
                    <mxGeometry x="2482" y="-964" width="32" height="32" as="geometry"/>
                </mxCell>
                <mxCell id="1335" value="" style="rounded=0;whiteSpace=wrap;html=1;fillColor=none;movable=1;resizable=1;rotatable=1;deletable=1;editable=1;connectable=1;container=0;" vertex="1" parent="1">
                    <mxGeometry x="2610" y="-900" width="32" height="32" as="geometry"/>
                </mxCell>
                <mxCell id="1336" value="" style="rounded=0;whiteSpace=wrap;html=1;fillColor=none;movable=1;resizable=1;rotatable=1;deletable=1;editable=1;connectable=1;container=0;" vertex="1" parent="1">
                    <mxGeometry x="2642" y="-900" width="32" height="32" as="geometry"/>
                </mxCell>
                <mxCell id="1337" value="" style="rounded=0;whiteSpace=wrap;html=1;fillColor=none;movable=1;resizable=1;rotatable=1;deletable=1;editable=1;connectable=1;container=0;" vertex="1" parent="1">
                    <mxGeometry x="2610" y="-868" width="32" height="32" as="geometry"/>
                </mxCell>
                <mxCell id="1338" value="" style="rounded=0;whiteSpace=wrap;html=1;fillColor=none;movable=1;resizable=1;rotatable=1;deletable=1;editable=1;connectable=1;container=0;" vertex="1" parent="1">
                    <mxGeometry x="2642" y="-868" width="32" height="32" as="geometry"/>
                </mxCell>
                <mxCell id="1339" value="" style="rounded=0;whiteSpace=wrap;html=1;fillColor=none;movable=1;resizable=1;rotatable=1;deletable=1;editable=1;connectable=1;container=0;" vertex="1" parent="1">
                    <mxGeometry x="2674" y="-900" width="32" height="32" as="geometry"/>
                </mxCell>
                <mxCell id="1340" value="" style="rounded=0;whiteSpace=wrap;html=1;fillColor=none;movable=1;resizable=1;rotatable=1;deletable=1;editable=1;connectable=1;container=0;" vertex="1" parent="1">
                    <mxGeometry x="2674" y="-868" width="32" height="32" as="geometry"/>
                </mxCell>
                <mxCell id="1341" value="" style="rounded=0;whiteSpace=wrap;html=1;fillColor=none;movable=1;resizable=1;rotatable=1;deletable=1;editable=1;connectable=1;container=0;" vertex="1" parent="1">
                    <mxGeometry x="2610" y="-932" width="32" height="32" as="geometry"/>
                </mxCell>
                <mxCell id="1342" value="" style="rounded=0;whiteSpace=wrap;html=1;fillColor=none;movable=1;resizable=1;rotatable=1;deletable=1;editable=1;connectable=1;container=0;" vertex="1" parent="1">
                    <mxGeometry x="2642" y="-932" width="32" height="32" as="geometry"/>
                </mxCell>
                <mxCell id="1343" value="" style="rounded=0;whiteSpace=wrap;html=1;fillColor=none;movable=1;resizable=1;rotatable=1;deletable=1;editable=1;connectable=1;container=0;" vertex="1" parent="1">
                    <mxGeometry x="2674" y="-932" width="32" height="32" as="geometry"/>
                </mxCell>
                <mxCell id="1344" value="" style="rounded=0;whiteSpace=wrap;html=1;fillColor=none;movable=1;resizable=1;rotatable=1;deletable=1;editable=1;connectable=1;container=0;" vertex="1" parent="1">
                    <mxGeometry x="2514" y="-900" width="32" height="32" as="geometry"/>
                </mxCell>
                <mxCell id="1345" value="" style="rounded=0;whiteSpace=wrap;html=1;fillColor=none;movable=1;resizable=1;rotatable=1;deletable=1;editable=1;connectable=1;container=0;" vertex="1" parent="1">
                    <mxGeometry x="2546" y="-900" width="32" height="32" as="geometry"/>
                </mxCell>
                <mxCell id="1346" value="" style="rounded=0;whiteSpace=wrap;html=1;fillColor=none;movable=1;resizable=1;rotatable=1;deletable=1;editable=1;connectable=1;container=0;" vertex="1" parent="1">
                    <mxGeometry x="2514" y="-868" width="32" height="32" as="geometry"/>
                </mxCell>
                <mxCell id="1347" value="" style="rounded=0;whiteSpace=wrap;html=1;fillColor=none;movable=1;resizable=1;rotatable=1;deletable=1;editable=1;connectable=1;container=0;" vertex="1" parent="1">
                    <mxGeometry x="2546" y="-868" width="32" height="32" as="geometry"/>
                </mxCell>
                <mxCell id="1348" value="" style="rounded=0;whiteSpace=wrap;html=1;fillColor=none;movable=1;resizable=1;rotatable=1;deletable=1;editable=1;connectable=1;container=0;" vertex="1" parent="1">
                    <mxGeometry x="2578" y="-900" width="32" height="32" as="geometry"/>
                </mxCell>
                <mxCell id="1349" value="" style="rounded=0;whiteSpace=wrap;html=1;fillColor=none;movable=1;resizable=1;rotatable=1;deletable=1;editable=1;connectable=1;container=0;" vertex="1" parent="1">
                    <mxGeometry x="2578" y="-868" width="32" height="32" as="geometry"/>
                </mxCell>
                <mxCell id="1350" value="" style="rounded=0;whiteSpace=wrap;html=1;fillColor=none;movable=1;resizable=1;rotatable=1;deletable=1;editable=1;connectable=1;container=0;" vertex="1" parent="1">
                    <mxGeometry x="2514" y="-932" width="32" height="32" as="geometry"/>
                </mxCell>
                <mxCell id="1351" value="" style="rounded=0;whiteSpace=wrap;html=1;fillColor=none;movable=1;resizable=1;rotatable=1;deletable=1;editable=1;connectable=1;container=0;" vertex="1" parent="1">
                    <mxGeometry x="2546" y="-932" width="32" height="32" as="geometry"/>
                </mxCell>
                <mxCell id="1352" value="" style="rounded=0;whiteSpace=wrap;html=1;fillColor=none;movable=1;resizable=1;rotatable=1;deletable=1;editable=1;connectable=1;container=0;" vertex="1" parent="1">
                    <mxGeometry x="2578" y="-932" width="32" height="32" as="geometry"/>
                </mxCell>
                <mxCell id="1353" value="" style="rounded=0;whiteSpace=wrap;html=1;fillColor=none;movable=1;resizable=1;rotatable=1;deletable=1;editable=1;connectable=1;container=0;" vertex="1" parent="1">
                    <mxGeometry x="2514" y="-996" width="32" height="32" as="geometry"/>
                </mxCell>
                <mxCell id="1354" value="" style="rounded=0;whiteSpace=wrap;html=1;fillColor=none;movable=1;resizable=1;rotatable=1;deletable=1;editable=1;connectable=1;container=0;" vertex="1" parent="1">
                    <mxGeometry x="2546" y="-996" width="32" height="32" as="geometry"/>
                </mxCell>
                <mxCell id="1355" value="" style="rounded=0;whiteSpace=wrap;html=1;fillColor=none;movable=1;resizable=1;rotatable=1;deletable=1;editable=1;connectable=1;container=0;" vertex="1" parent="1">
                    <mxGeometry x="2514" y="-964" width="32" height="32" as="geometry"/>
                </mxCell>
                <mxCell id="1356" value="" style="rounded=0;whiteSpace=wrap;html=1;fillColor=none;movable=1;resizable=1;rotatable=1;deletable=1;editable=1;connectable=1;container=0;" vertex="1" parent="1">
                    <mxGeometry x="2546" y="-964" width="32" height="32" as="geometry"/>
                </mxCell>
                <mxCell id="1357" value="" style="rounded=0;whiteSpace=wrap;html=1;fillColor=none;movable=1;resizable=1;rotatable=1;deletable=1;editable=1;connectable=1;container=0;" vertex="1" parent="1">
                    <mxGeometry x="2578" y="-996" width="32" height="32" as="geometry"/>
                </mxCell>
                <mxCell id="1358" value="" style="rounded=0;whiteSpace=wrap;html=1;fillColor=none;movable=1;resizable=1;rotatable=1;deletable=1;editable=1;connectable=1;container=0;" vertex="1" parent="1">
                    <mxGeometry x="2578" y="-964" width="32" height="32" as="geometry"/>
                </mxCell>
                <mxCell id="1362" value="" style="rounded=0;whiteSpace=wrap;html=1;fillColor=none;movable=1;resizable=1;rotatable=1;deletable=1;editable=1;connectable=1;container=0;" vertex="1" parent="1">
                    <mxGeometry x="2610" y="-996" width="32" height="32" as="geometry"/>
                </mxCell>
                <mxCell id="1363" value="" style="rounded=0;whiteSpace=wrap;html=1;fillColor=none;movable=1;resizable=1;rotatable=1;deletable=1;editable=1;connectable=1;container=0;" vertex="1" parent="1">
                    <mxGeometry x="2642" y="-996" width="32" height="32" as="geometry"/>
                </mxCell>
                <mxCell id="1364" value="" style="rounded=0;whiteSpace=wrap;html=1;fillColor=none;movable=1;resizable=1;rotatable=1;deletable=1;editable=1;connectable=1;container=0;" vertex="1" parent="1">
                    <mxGeometry x="2610" y="-964" width="32" height="32" as="geometry"/>
                </mxCell>
                <mxCell id="1365" value="" style="rounded=0;whiteSpace=wrap;html=1;fillColor=none;movable=1;resizable=1;rotatable=1;deletable=1;editable=1;connectable=1;container=0;" vertex="1" parent="1">
                    <mxGeometry x="2642" y="-964" width="32" height="32" as="geometry"/>
                </mxCell>
                <mxCell id="1366" value="" style="rounded=0;whiteSpace=wrap;html=1;fillColor=none;movable=1;resizable=1;rotatable=1;deletable=1;editable=1;connectable=1;container=0;" vertex="1" parent="1">
                    <mxGeometry x="2674" y="-996" width="32" height="32" as="geometry"/>
                </mxCell>
                <mxCell id="1367" value="" style="rounded=0;whiteSpace=wrap;html=1;fillColor=none;movable=1;resizable=1;rotatable=1;deletable=1;editable=1;connectable=1;container=0;" vertex="1" parent="1">
                    <mxGeometry x="2674" y="-964" width="32" height="32" as="geometry"/>
                </mxCell>
                <mxCell id="1371" value="" style="rounded=0;whiteSpace=wrap;html=1;fillColor=none;movable=1;resizable=1;rotatable=1;deletable=1;editable=1;connectable=1;container=0;" vertex="1" parent="1">
                    <mxGeometry x="2802" y="-900" width="32" height="32" as="geometry"/>
                </mxCell>
                <mxCell id="1372" value="" style="rounded=0;whiteSpace=wrap;html=1;fillColor=none;movable=1;resizable=1;rotatable=1;deletable=1;editable=1;connectable=1;container=0;" vertex="1" parent="1">
                    <mxGeometry x="2834" y="-900" width="32" height="32" as="geometry"/>
                </mxCell>
                <mxCell id="1373" value="" style="rounded=0;whiteSpace=wrap;html=1;fillColor=none;movable=1;resizable=1;rotatable=1;deletable=1;editable=1;connectable=1;container=0;" vertex="1" parent="1">
                    <mxGeometry x="2802" y="-868" width="32" height="32" as="geometry"/>
                </mxCell>
                <mxCell id="1374" value="" style="rounded=0;whiteSpace=wrap;html=1;fillColor=none;movable=1;resizable=1;rotatable=1;deletable=1;editable=1;connectable=1;container=0;" vertex="1" parent="1">
                    <mxGeometry x="2834" y="-868" width="32" height="32" as="geometry"/>
                </mxCell>
                <mxCell id="1375" value="" style="rounded=0;whiteSpace=wrap;html=1;fillColor=none;movable=1;resizable=1;rotatable=1;deletable=1;editable=1;connectable=1;container=0;" vertex="1" parent="1">
                    <mxGeometry x="2866" y="-900" width="32" height="32" as="geometry"/>
                </mxCell>
                <mxCell id="1376" value="" style="rounded=0;whiteSpace=wrap;html=1;fillColor=none;movable=1;resizable=1;rotatable=1;deletable=1;editable=1;connectable=1;container=0;" vertex="1" parent="1">
                    <mxGeometry x="2866" y="-868" width="32" height="32" as="geometry"/>
                </mxCell>
                <mxCell id="1377" value="" style="rounded=0;whiteSpace=wrap;html=1;fillColor=none;movable=1;resizable=1;rotatable=1;deletable=1;editable=1;connectable=1;container=0;" vertex="1" parent="1">
                    <mxGeometry x="2802" y="-932" width="32" height="32" as="geometry"/>
                </mxCell>
                <mxCell id="1378" value="" style="rounded=0;whiteSpace=wrap;html=1;fillColor=none;movable=1;resizable=1;rotatable=1;deletable=1;editable=1;connectable=1;container=0;" vertex="1" parent="1">
                    <mxGeometry x="2834" y="-932" width="32" height="32" as="geometry"/>
                </mxCell>
                <mxCell id="1379" value="" style="rounded=0;whiteSpace=wrap;html=1;fillColor=none;movable=1;resizable=1;rotatable=1;deletable=1;editable=1;connectable=1;container=0;" vertex="1" parent="1">
                    <mxGeometry x="2866" y="-932" width="32" height="32" as="geometry"/>
                </mxCell>
                <mxCell id="1380" value="" style="rounded=0;whiteSpace=wrap;html=1;fillColor=none;movable=1;resizable=1;rotatable=1;deletable=1;editable=1;connectable=1;container=0;" vertex="1" parent="1">
                    <mxGeometry x="2706" y="-900" width="32" height="32" as="geometry"/>
                </mxCell>
                <mxCell id="1381" value="" style="rounded=0;whiteSpace=wrap;html=1;fillColor=none;movable=1;resizable=1;rotatable=1;deletable=1;editable=1;connectable=1;container=0;" vertex="1" parent="1">
                    <mxGeometry x="2738" y="-900" width="32" height="32" as="geometry"/>
                </mxCell>
                <mxCell id="1382" value="" style="rounded=0;whiteSpace=wrap;html=1;fillColor=none;movable=1;resizable=1;rotatable=1;deletable=1;editable=1;connectable=1;container=0;" vertex="1" parent="1">
                    <mxGeometry x="2706" y="-868" width="32" height="32" as="geometry"/>
                </mxCell>
                <mxCell id="1383" value="" style="rounded=0;whiteSpace=wrap;html=1;fillColor=none;movable=1;resizable=1;rotatable=1;deletable=1;editable=1;connectable=1;container=0;" vertex="1" parent="1">
                    <mxGeometry x="2738" y="-868" width="32" height="32" as="geometry"/>
                </mxCell>
                <mxCell id="1384" value="" style="rounded=0;whiteSpace=wrap;html=1;fillColor=none;movable=1;resizable=1;rotatable=1;deletable=1;editable=1;connectable=1;container=0;" vertex="1" parent="1">
                    <mxGeometry x="2770" y="-900" width="32" height="32" as="geometry"/>
                </mxCell>
                <mxCell id="1385" value="" style="rounded=0;whiteSpace=wrap;html=1;fillColor=none;movable=1;resizable=1;rotatable=1;deletable=1;editable=1;connectable=1;container=0;" vertex="1" parent="1">
                    <mxGeometry x="2770" y="-868" width="32" height="32" as="geometry"/>
                </mxCell>
                <mxCell id="1386" value="" style="rounded=0;whiteSpace=wrap;html=1;fillColor=none;movable=1;resizable=1;rotatable=1;deletable=1;editable=1;connectable=1;container=0;" vertex="1" parent="1">
                    <mxGeometry x="2706" y="-932" width="32" height="32" as="geometry"/>
                </mxCell>
                <mxCell id="1387" value="" style="rounded=0;whiteSpace=wrap;html=1;fillColor=none;movable=1;resizable=1;rotatable=1;deletable=1;editable=1;connectable=1;container=0;" vertex="1" parent="1">
                    <mxGeometry x="2738" y="-932" width="32" height="32" as="geometry"/>
                </mxCell>
                <mxCell id="1388" value="" style="rounded=0;whiteSpace=wrap;html=1;fillColor=none;movable=1;resizable=1;rotatable=1;deletable=1;editable=1;connectable=1;container=0;" vertex="1" parent="1">
                    <mxGeometry x="2770" y="-932" width="32" height="32" as="geometry"/>
                </mxCell>
                <mxCell id="1389" value="" style="rounded=0;whiteSpace=wrap;html=1;fillColor=none;movable=1;resizable=1;rotatable=1;deletable=1;editable=1;connectable=1;container=0;" vertex="1" parent="1">
                    <mxGeometry x="2706" y="-996" width="32" height="32" as="geometry"/>
                </mxCell>
                <mxCell id="1390" value="" style="rounded=0;whiteSpace=wrap;html=1;fillColor=none;movable=1;resizable=1;rotatable=1;deletable=1;editable=1;connectable=1;container=0;" vertex="1" parent="1">
                    <mxGeometry x="2738" y="-996" width="32" height="32" as="geometry"/>
                </mxCell>
                <mxCell id="1391" value="" style="rounded=0;whiteSpace=wrap;html=1;fillColor=none;movable=1;resizable=1;rotatable=1;deletable=1;editable=1;connectable=1;container=0;" vertex="1" parent="1">
                    <mxGeometry x="2706" y="-964" width="32" height="32" as="geometry"/>
                </mxCell>
                <mxCell id="1392" value="" style="rounded=0;whiteSpace=wrap;html=1;fillColor=none;movable=1;resizable=1;rotatable=1;deletable=1;editable=1;connectable=1;container=0;" vertex="1" parent="1">
                    <mxGeometry x="2738" y="-964" width="32" height="32" as="geometry"/>
                </mxCell>
                <mxCell id="1393" value="" style="rounded=0;whiteSpace=wrap;html=1;fillColor=none;movable=1;resizable=1;rotatable=1;deletable=1;editable=1;connectable=1;container=0;" vertex="1" parent="1">
                    <mxGeometry x="2770" y="-996" width="32" height="32" as="geometry"/>
                </mxCell>
                <mxCell id="1394" value="" style="rounded=0;whiteSpace=wrap;html=1;fillColor=none;movable=1;resizable=1;rotatable=1;deletable=1;editable=1;connectable=1;container=0;" vertex="1" parent="1">
                    <mxGeometry x="2770" y="-964" width="32" height="32" as="geometry"/>
                </mxCell>
                <mxCell id="1398" value="" style="rounded=0;whiteSpace=wrap;html=1;fillColor=none;movable=1;resizable=1;rotatable=1;deletable=1;editable=1;connectable=1;container=0;" vertex="1" parent="1">
                    <mxGeometry x="2802" y="-996" width="32" height="32" as="geometry"/>
                </mxCell>
                <mxCell id="1399" value="" style="rounded=0;whiteSpace=wrap;html=1;fillColor=none;movable=1;resizable=1;rotatable=1;deletable=1;editable=1;connectable=1;container=0;" vertex="1" parent="1">
                    <mxGeometry x="2834" y="-996" width="32" height="32" as="geometry"/>
                </mxCell>
                <mxCell id="1400" value="" style="rounded=0;whiteSpace=wrap;html=1;fillColor=none;movable=1;resizable=1;rotatable=1;deletable=1;editable=1;connectable=1;container=0;" vertex="1" parent="1">
                    <mxGeometry x="2802" y="-964" width="32" height="32" as="geometry"/>
                </mxCell>
                <mxCell id="1401" value="" style="rounded=0;whiteSpace=wrap;html=1;fillColor=none;movable=1;resizable=1;rotatable=1;deletable=1;editable=1;connectable=1;container=0;" vertex="1" parent="1">
                    <mxGeometry x="2834" y="-964" width="32" height="32" as="geometry"/>
                </mxCell>
                <mxCell id="1402" value="" style="rounded=0;whiteSpace=wrap;html=1;fillColor=none;movable=1;resizable=1;rotatable=1;deletable=1;editable=1;connectable=1;container=0;" vertex="1" parent="1">
                    <mxGeometry x="2866" y="-996" width="32" height="32" as="geometry"/>
                </mxCell>
                <mxCell id="1403" value="" style="rounded=0;whiteSpace=wrap;html=1;fillColor=none;movable=1;resizable=1;rotatable=1;deletable=1;editable=1;connectable=1;container=0;" vertex="1" parent="1">
                    <mxGeometry x="2866" y="-964" width="32" height="32" as="geometry"/>
                </mxCell>
                <mxCell id="1528" value="" style="shape=parallelogram;perimeter=parallelogramPerimeter;whiteSpace=wrap;html=1;fixedSize=1;strokeWidth=3;rotation=-60;fillColor=#dae8fc;strokeColor=#6c8ebf;" vertex="1" parent="1">
                    <mxGeometry x="2324" y="-880" width="397" height="153" as="geometry"/>
                </mxCell>
                <mxCell id="1531" value="" style="rhombus;whiteSpace=wrap;html=1;strokeWidth=3;fillColor=#2a2a2a;fontColor=#f0f0f0;rotation=-10;" vertex="1" parent="1">
                    <mxGeometry x="2745" y="-926" width="119" height="126" as="geometry"/>
                </mxCell>
                <mxCell id="1534" value="" style="rounded=0;whiteSpace=wrap;html=1;fillColor=none;movable=1;resizable=1;rotatable=1;deletable=1;editable=1;connectable=1;container=0;" vertex="1" parent="1">
                    <mxGeometry x="2386" y="-996" width="32" height="32" as="geometry"/>
                </mxCell>
                <mxCell id="1540" value="" style="shape=hexagon;perimeter=hexagonPerimeter2;whiteSpace=wrap;html=1;fixedSize=1;strokeWidth=3;fillColor=#2a2a2a;fontColor=#f0f0f0;rotation=105;" vertex="1" parent="1">
                    <mxGeometry x="2656" y="-568" width="120" height="46" as="geometry"/>
                </mxCell>
                <mxCell id="1542" value="" style="group" vertex="1" connectable="0" parent="1">
                    <mxGeometry x="2167" y="-547" width="122" height="93.38" as="geometry"/>
                </mxCell>
                <mxCell id="1541" value="" style="verticalLabelPosition=bottom;verticalAlign=top;html=1;shape=mxgraph.basic.cone2;dx=0.5;dy=0.9;strokeWidth=3;fillColor=#2a2a2a;fontColor=#f0f0f0;rotation=-90;" vertex="1" parent="1542">
                    <mxGeometry x="22.882959622531267" y="-3.904999999999968" width="95.13850265146777" height="101.18999999999987" as="geometry"/>
                </mxCell>
                <mxCell id="530" value="" style="verticalLabelPosition=bottom;verticalAlign=top;html=1;shadow=0;dashed=0;strokeWidth=1;shape=mxgraph.ios.iArrowIcon;fillColor=#8BbEff;fillColor2=#135Ec8;strokeColor=#ffffff;fontColor=#f0f0f0;movable=1;resizable=1;rotatable=1;deletable=1;editable=1;connectable=1;" vertex="1" parent="1542">
                    <mxGeometry y="36.00499999999995" width="22.41429704789346" height="21.99999999999997" as="geometry"/>
                </mxCell>
                <mxCell id="2000" value="" style="rounded=0;whiteSpace=wrap;html=1;fillColor=none;movable=1;resizable=1;rotatable=1;deletable=1;editable=1;connectable=1;container=0;" vertex="1" parent="1">
                    <mxGeometry x="2130" y="-1028" width="32" height="32" as="geometry"/>
                </mxCell>
                <mxCell id="2001" value="" style="rounded=0;whiteSpace=wrap;html=1;fillColor=none;movable=1;resizable=1;rotatable=1;deletable=1;editable=1;connectable=1;container=0;" vertex="1" parent="1">
                    <mxGeometry x="2162" y="-1028" width="32" height="32" as="geometry"/>
                </mxCell>
                <mxCell id="2002" value="" style="rounded=0;whiteSpace=wrap;html=1;fillColor=none;movable=1;resizable=1;rotatable=1;deletable=1;editable=1;connectable=1;container=0;" vertex="1" parent="1">
                    <mxGeometry x="2194" y="-1028" width="32" height="32" as="geometry"/>
                </mxCell>
                <mxCell id="2003" value="" style="rounded=0;whiteSpace=wrap;html=1;fillColor=none;movable=1;resizable=1;rotatable=1;deletable=1;editable=1;connectable=1;container=0;" vertex="1" parent="1">
                    <mxGeometry x="2226" y="-1028" width="32" height="32" as="geometry"/>
                </mxCell>
                <mxCell id="2004" value="" style="rounded=0;whiteSpace=wrap;html=1;fillColor=none;movable=1;resizable=1;rotatable=1;deletable=1;editable=1;connectable=1;container=0;" vertex="1" parent="1">
                    <mxGeometry x="2258" y="-1028" width="32" height="32" as="geometry"/>
                </mxCell>
                <mxCell id="2005" value="" style="rounded=0;whiteSpace=wrap;html=1;fillColor=none;movable=1;resizable=1;rotatable=1;deletable=1;editable=1;connectable=1;container=0;" vertex="1" parent="1">
                    <mxGeometry x="2290" y="-1028" width="32" height="32" as="geometry"/>
                </mxCell>
                <mxCell id="2006" value="" style="rounded=0;whiteSpace=wrap;html=1;fillColor=none;movable=1;resizable=1;rotatable=1;deletable=1;editable=1;connectable=1;container=0;" vertex="1" parent="1">
                    <mxGeometry x="2322" y="-1028" width="32" height="32" as="geometry"/>
                </mxCell>
                <mxCell id="2007" value="" style="rounded=0;whiteSpace=wrap;html=1;fillColor=none;movable=1;resizable=1;rotatable=1;deletable=1;editable=1;connectable=1;container=0;" vertex="1" parent="1">
                    <mxGeometry x="2354" y="-1028" width="32" height="32" as="geometry"/>
                </mxCell>
                <mxCell id="2008" value="" style="rounded=0;whiteSpace=wrap;html=1;fillColor=none;movable=1;resizable=1;rotatable=1;deletable=1;editable=1;connectable=1;container=0;" vertex="1" parent="1">
                    <mxGeometry x="2418" y="-1028" width="32" height="32" as="geometry"/>
                </mxCell>
                <mxCell id="2009" value="" style="rounded=0;whiteSpace=wrap;html=1;fillColor=none;movable=1;resizable=1;rotatable=1;deletable=1;editable=1;connectable=1;container=0;" vertex="1" parent="1">
                    <mxGeometry x="2450" y="-1028" width="32" height="32" as="geometry"/>
                </mxCell>
                <mxCell id="2010" value="" style="rounded=0;whiteSpace=wrap;html=1;fillColor=none;movable=1;resizable=1;rotatable=1;deletable=1;editable=1;connectable=1;container=0;" vertex="1" parent="1">
                    <mxGeometry x="2482" y="-1028" width="32" height="32" as="geometry"/>
                </mxCell>
                <mxCell id="2011" value="" style="rounded=0;whiteSpace=wrap;html=1;fillColor=none;movable=1;resizable=1;rotatable=1;deletable=1;editable=1;connectable=1;container=0;" vertex="1" parent="1">
                    <mxGeometry x="2514" y="-1028" width="32" height="32" as="geometry"/>
                </mxCell>
                <mxCell id="2012" value="" style="rounded=0;whiteSpace=wrap;html=1;fillColor=none;movable=1;resizable=1;rotatable=1;deletable=1;editable=1;connectable=1;container=0;" vertex="1" parent="1">
                    <mxGeometry x="2546" y="-1028" width="32" height="32" as="geometry"/>
                </mxCell>
                <mxCell id="2013" value="" style="rounded=0;whiteSpace=wrap;html=1;fillColor=none;movable=1;resizable=1;rotatable=1;deletable=1;editable=1;connectable=1;container=0;" vertex="1" parent="1">
                    <mxGeometry x="2578" y="-1028" width="32" height="32" as="geometry"/>
                </mxCell>
                <mxCell id="2014" value="" style="rounded=0;whiteSpace=wrap;html=1;fillColor=none;movable=1;resizable=1;rotatable=1;deletable=1;editable=1;connectable=1;container=0;" vertex="1" parent="1">
                    <mxGeometry x="2610" y="-1028" width="32" height="32" as="geometry"/>
                </mxCell>
                <mxCell id="2015" value="" style="rounded=0;whiteSpace=wrap;html=1;fillColor=none;movable=1;resizable=1;rotatable=1;deletable=1;editable=1;connectable=1;container=0;" vertex="1" parent="1">
                    <mxGeometry x="2642" y="-1028" width="32" height="32" as="geometry"/>
                </mxCell>
                <mxCell id="2016" value="" style="rounded=0;whiteSpace=wrap;html=1;fillColor=none;movable=1;resizable=1;rotatable=1;deletable=1;editable=1;connectable=1;container=0;" vertex="1" parent="1">
                    <mxGeometry x="2674" y="-1028" width="32" height="32" as="geometry"/>
                </mxCell>
                <mxCell id="2017" value="" style="rounded=0;whiteSpace=wrap;html=1;fillColor=none;movable=1;resizable=1;rotatable=1;deletable=1;editable=1;connectable=1;container=0;" vertex="1" parent="1">
                    <mxGeometry x="2706" y="-1028" width="32" height="32" as="geometry"/>
                </mxCell>
                <mxCell id="2018" value="" style="rounded=0;whiteSpace=wrap;html=1;fillColor=none;movable=1;resizable=1;rotatable=1;deletable=1;editable=1;connectable=1;container=0;" vertex="1" parent="1">
                    <mxGeometry x="2738" y="-1028" width="32" height="32" as="geometry"/>
                </mxCell>
                <mxCell id="2019" value="" style="rounded=0;whiteSpace=wrap;html=1;fillColor=none;movable=1;resizable=1;rotatable=1;deletable=1;editable=1;connectable=1;container=0;" vertex="1" parent="1">
                    <mxGeometry x="2770" y="-1028" width="32" height="32" as="geometry"/>
                </mxCell>
                <mxCell id="2020" value="" style="rounded=0;whiteSpace=wrap;html=1;fillColor=none;movable=1;resizable=1;rotatable=1;deletable=1;editable=1;connectable=1;container=0;" vertex="1" parent="1">
                    <mxGeometry x="2802" y="-1028" width="32" height="32" as="geometry"/>
                </mxCell>
                <mxCell id="2021" value="" style="rounded=0;whiteSpace=wrap;html=1;fillColor=none;movable=1;resizable=1;rotatable=1;deletable=1;editable=1;connectable=1;container=0;" vertex="1" parent="1">
                    <mxGeometry x="2834" y="-1028" width="32" height="32" as="geometry"/>
                </mxCell>
                <mxCell id="2022" value="" style="rounded=0;whiteSpace=wrap;html=1;fillColor=none;movable=1;resizable=1;rotatable=1;deletable=1;editable=1;connectable=1;container=0;" vertex="1" parent="1">
                    <mxGeometry x="2866" y="-1028" width="32" height="32" as="geometry"/>
                </mxCell>
                <mxCell id="2023" value="" style="rounded=0;whiteSpace=wrap;html=1;fillColor=none;movable=1;resizable=1;rotatable=1;deletable=1;editable=1;connectable=1;container=0;" vertex="1" parent="1">
                    <mxGeometry x="2386" y="-1028" width="32" height="32" as="geometry"/>
                </mxCell>
                <mxCell id="2024" value="" style="rounded=0;whiteSpace=wrap;html=1;fillColor=none;movable=1;resizable=1;rotatable=1;deletable=1;editable=1;connectable=1;container=0;" vertex="1" parent="1">
                    <mxGeometry x="2226" y="-1060" width="32" height="32" as="geometry"/>
                </mxCell>
                <mxCell id="2025" value="" style="rounded=0;whiteSpace=wrap;html=1;fillColor=none;movable=1;resizable=1;rotatable=1;deletable=1;editable=1;connectable=1;container=0;" vertex="1" parent="1">
                    <mxGeometry x="2258" y="-1060" width="32" height="32" as="geometry"/>
                </mxCell>
                <mxCell id="2026" value="" style="rounded=0;whiteSpace=wrap;html=1;fillColor=none;movable=1;resizable=1;rotatable=1;deletable=1;editable=1;connectable=1;container=0;" vertex="1" parent="1">
                    <mxGeometry x="2290" y="-1060" width="32" height="32" as="geometry"/>
                </mxCell>
                <mxCell id="2027" value="" style="rounded=0;whiteSpace=wrap;html=1;fillColor=none;movable=1;resizable=1;rotatable=1;deletable=1;editable=1;connectable=1;container=0;" vertex="1" parent="1">
                    <mxGeometry x="2226" y="-1092" width="32" height="32" as="geometry"/>
                </mxCell>
                <mxCell id="2028" value="" style="rounded=0;whiteSpace=wrap;html=1;fillColor=none;movable=1;resizable=1;rotatable=1;deletable=1;editable=1;connectable=1;container=0;" vertex="1" parent="1">
                    <mxGeometry x="2258" y="-1092" width="32" height="32" as="geometry"/>
                </mxCell>
                <mxCell id="2029" value="" style="rounded=0;whiteSpace=wrap;html=1;fillColor=none;movable=1;resizable=1;rotatable=1;deletable=1;editable=1;connectable=1;container=0;" vertex="1" parent="1">
                    <mxGeometry x="2290" y="-1092" width="32" height="32" as="geometry"/>
                </mxCell>
                <mxCell id="2030" value="" style="rounded=0;whiteSpace=wrap;html=1;fillColor=none;movable=1;resizable=1;rotatable=1;deletable=1;editable=1;connectable=1;container=0;" vertex="1" parent="1">
                    <mxGeometry x="2130" y="-1060" width="32" height="32" as="geometry"/>
                </mxCell>
                <mxCell id="2031" value="" style="rounded=0;whiteSpace=wrap;html=1;fillColor=none;movable=1;resizable=1;rotatable=1;deletable=1;editable=1;connectable=1;container=0;" vertex="1" parent="1">
                    <mxGeometry x="2162" y="-1060" width="32" height="32" as="geometry"/>
                </mxCell>
                <mxCell id="2032" value="" style="rounded=0;whiteSpace=wrap;html=1;fillColor=none;movable=1;resizable=1;rotatable=1;deletable=1;editable=1;connectable=1;container=0;" vertex="1" parent="1">
                    <mxGeometry x="2194" y="-1060" width="32" height="32" as="geometry"/>
                </mxCell>
                <mxCell id="2033" value="" style="rounded=0;whiteSpace=wrap;html=1;fillColor=none;movable=1;resizable=1;rotatable=1;deletable=1;editable=1;connectable=1;container=0;" vertex="1" parent="1">
                    <mxGeometry x="2130" y="-1092" width="32" height="32" as="geometry"/>
                </mxCell>
                <mxCell id="2034" value="" style="rounded=0;whiteSpace=wrap;html=1;fillColor=none;movable=1;resizable=1;rotatable=1;deletable=1;editable=1;connectable=1;container=0;" vertex="1" parent="1">
                    <mxGeometry x="2162" y="-1092" width="32" height="32" as="geometry"/>
                </mxCell>
                <mxCell id="2035" value="" style="rounded=0;whiteSpace=wrap;html=1;fillColor=none;movable=1;resizable=1;rotatable=1;deletable=1;editable=1;connectable=1;container=0;" vertex="1" parent="1">
                    <mxGeometry x="2194" y="-1092" width="32" height="32" as="geometry"/>
                </mxCell>
                <mxCell id="2036" value="" style="rounded=0;whiteSpace=wrap;html=1;fillColor=none;movable=1;resizable=1;rotatable=1;deletable=1;editable=1;connectable=1;container=0;" vertex="1" parent="1">
                    <mxGeometry x="2130" y="-1156" width="32" height="32" as="geometry"/>
                </mxCell>
                <mxCell id="2037" value="" style="rounded=0;whiteSpace=wrap;html=1;fillColor=none;movable=1;resizable=1;rotatable=1;deletable=1;editable=1;connectable=1;container=0;" vertex="1" parent="1">
                    <mxGeometry x="2162" y="-1156" width="32" height="32" as="geometry"/>
                </mxCell>
                <mxCell id="2038" value="" style="rounded=0;whiteSpace=wrap;html=1;fillColor=none;movable=1;resizable=1;rotatable=1;deletable=1;editable=1;connectable=1;container=0;" vertex="1" parent="1">
                    <mxGeometry x="2130" y="-1124" width="32" height="32" as="geometry"/>
                </mxCell>
                <mxCell id="2039" value="" style="rounded=0;whiteSpace=wrap;html=1;fillColor=none;movable=1;resizable=1;rotatable=1;deletable=1;editable=1;connectable=1;container=0;" vertex="1" parent="1">
                    <mxGeometry x="2162" y="-1124" width="32" height="32" as="geometry"/>
                </mxCell>
                <mxCell id="2040" value="" style="rounded=0;whiteSpace=wrap;html=1;fillColor=none;movable=1;resizable=1;rotatable=1;deletable=1;editable=1;connectable=1;container=0;" vertex="1" parent="1">
                    <mxGeometry x="2194" y="-1156" width="32" height="32" as="geometry"/>
                </mxCell>
                <mxCell id="2041" value="" style="rounded=0;whiteSpace=wrap;html=1;fillColor=none;movable=1;resizable=1;rotatable=1;deletable=1;editable=1;connectable=1;container=0;" vertex="1" parent="1">
                    <mxGeometry x="2194" y="-1124" width="32" height="32" as="geometry"/>
                </mxCell>
                <mxCell id="2042" value="" style="rounded=0;whiteSpace=wrap;html=1;fillColor=none;movable=1;resizable=1;rotatable=1;deletable=1;editable=1;connectable=1;container=0;" vertex="1" parent="1">
                    <mxGeometry x="2226" y="-1156" width="32" height="32" as="geometry"/>
                </mxCell>
                <mxCell id="2043" value="" style="rounded=0;whiteSpace=wrap;html=1;fillColor=none;movable=1;resizable=1;rotatable=1;deletable=1;editable=1;connectable=1;container=0;" vertex="1" parent="1">
                    <mxGeometry x="2258" y="-1156" width="32" height="32" as="geometry"/>
                </mxCell>
                <mxCell id="2044" value="" style="rounded=0;whiteSpace=wrap;html=1;fillColor=none;movable=1;resizable=1;rotatable=1;deletable=1;editable=1;connectable=1;container=0;" vertex="1" parent="1">
                    <mxGeometry x="2226" y="-1124" width="32" height="32" as="geometry"/>
                </mxCell>
                <mxCell id="2045" value="" style="rounded=0;whiteSpace=wrap;html=1;fillColor=none;movable=1;resizable=1;rotatable=1;deletable=1;editable=1;connectable=1;container=0;" vertex="1" parent="1">
                    <mxGeometry x="2258" y="-1124" width="32" height="32" as="geometry"/>
                </mxCell>
                <mxCell id="2046" value="" style="rounded=0;whiteSpace=wrap;html=1;fillColor=none;movable=1;resizable=1;rotatable=1;deletable=1;editable=1;connectable=1;container=0;" vertex="1" parent="1">
                    <mxGeometry x="2290" y="-1156" width="32" height="32" as="geometry"/>
                </mxCell>
                <mxCell id="2047" value="" style="rounded=0;whiteSpace=wrap;html=1;fillColor=none;movable=1;resizable=1;rotatable=1;deletable=1;editable=1;connectable=1;container=0;" vertex="1" parent="1">
                    <mxGeometry x="2290" y="-1124" width="32" height="32" as="geometry"/>
                </mxCell>
                <mxCell id="2048" value="" style="rounded=0;whiteSpace=wrap;html=1;fillColor=none;movable=1;resizable=1;rotatable=1;deletable=1;editable=1;connectable=1;container=0;" vertex="1" parent="1">
                    <mxGeometry x="2418" y="-1060" width="32" height="32" as="geometry"/>
                </mxCell>
                <mxCell id="2049" value="" style="rounded=0;whiteSpace=wrap;html=1;fillColor=none;movable=1;resizable=1;rotatable=1;deletable=1;editable=1;connectable=1;container=0;" vertex="1" parent="1">
                    <mxGeometry x="2450" y="-1060" width="32" height="32" as="geometry"/>
                </mxCell>
                <mxCell id="2050" value="" style="rounded=0;whiteSpace=wrap;html=1;fillColor=none;movable=1;resizable=1;rotatable=1;deletable=1;editable=1;connectable=1;container=0;" vertex="1" parent="1">
                    <mxGeometry x="2482" y="-1060" width="32" height="32" as="geometry"/>
                </mxCell>
                <mxCell id="2051" value="" style="rounded=0;whiteSpace=wrap;html=1;fillColor=none;movable=1;resizable=1;rotatable=1;deletable=1;editable=1;connectable=1;container=0;" vertex="1" parent="1">
                    <mxGeometry x="2418" y="-1092" width="32" height="32" as="geometry"/>
                </mxCell>
                <mxCell id="2052" value="" style="rounded=0;whiteSpace=wrap;html=1;fillColor=none;movable=1;resizable=1;rotatable=1;deletable=1;editable=1;connectable=1;container=0;" vertex="1" parent="1">
                    <mxGeometry x="2450" y="-1092" width="32" height="32" as="geometry"/>
                </mxCell>
                <mxCell id="2053" value="" style="rounded=0;whiteSpace=wrap;html=1;fillColor=none;movable=1;resizable=1;rotatable=1;deletable=1;editable=1;connectable=1;container=0;" vertex="1" parent="1">
                    <mxGeometry x="2482" y="-1092" width="32" height="32" as="geometry"/>
                </mxCell>
                <mxCell id="2054" value="" style="rounded=0;whiteSpace=wrap;html=1;fillColor=none;movable=1;resizable=1;rotatable=1;deletable=1;editable=1;connectable=1;container=0;" vertex="1" parent="1">
                    <mxGeometry x="2322" y="-1060" width="32" height="32" as="geometry"/>
                </mxCell>
                <mxCell id="2055" value="" style="rounded=0;whiteSpace=wrap;html=1;fillColor=none;movable=1;resizable=1;rotatable=1;deletable=1;editable=1;connectable=1;container=0;" vertex="1" parent="1">
                    <mxGeometry x="2354" y="-1060" width="32" height="32" as="geometry"/>
                </mxCell>
                <mxCell id="2056" value="" style="rounded=0;whiteSpace=wrap;html=1;fillColor=none;movable=1;resizable=1;rotatable=1;deletable=1;editable=1;connectable=1;container=0;" vertex="1" parent="1">
                    <mxGeometry x="2386" y="-1060" width="32" height="32" as="geometry"/>
                </mxCell>
                <mxCell id="2057" value="" style="rounded=0;whiteSpace=wrap;html=1;fillColor=none;movable=1;resizable=1;rotatable=1;deletable=1;editable=1;connectable=1;container=0;" vertex="1" parent="1">
                    <mxGeometry x="2322" y="-1092" width="32" height="32" as="geometry"/>
                </mxCell>
                <mxCell id="2058" value="" style="rounded=0;whiteSpace=wrap;html=1;fillColor=none;movable=1;resizable=1;rotatable=1;deletable=1;editable=1;connectable=1;container=0;" vertex="1" parent="1">
                    <mxGeometry x="2354" y="-1092" width="32" height="32" as="geometry"/>
                </mxCell>
                <mxCell id="2059" value="" style="rounded=0;whiteSpace=wrap;html=1;fillColor=none;movable=1;resizable=1;rotatable=1;deletable=1;editable=1;connectable=1;container=0;" vertex="1" parent="1">
                    <mxGeometry x="2386" y="-1092" width="32" height="32" as="geometry"/>
                </mxCell>
                <mxCell id="2060" value="" style="rounded=0;whiteSpace=wrap;html=1;fillColor=none;movable=1;resizable=1;rotatable=1;deletable=1;editable=1;connectable=1;container=0;" vertex="1" parent="1">
                    <mxGeometry x="2322" y="-1156" width="32" height="32" as="geometry"/>
                </mxCell>
                <mxCell id="2061" value="" style="rounded=0;whiteSpace=wrap;html=1;fillColor=none;movable=1;resizable=1;rotatable=1;deletable=1;editable=1;connectable=1;container=0;" vertex="1" parent="1">
                    <mxGeometry x="2354" y="-1156" width="32" height="32" as="geometry"/>
                </mxCell>
                <mxCell id="2062" value="" style="rounded=0;whiteSpace=wrap;html=1;fillColor=none;movable=1;resizable=1;rotatable=1;deletable=1;editable=1;connectable=1;container=0;" vertex="1" parent="1">
                    <mxGeometry x="2322" y="-1124" width="32" height="32" as="geometry"/>
                </mxCell>
                <mxCell id="2063" value="" style="rounded=0;whiteSpace=wrap;html=1;fillColor=none;movable=1;resizable=1;rotatable=1;deletable=1;editable=1;connectable=1;container=0;" vertex="1" parent="1">
                    <mxGeometry x="2354" y="-1124" width="32" height="32" as="geometry"/>
                </mxCell>
                <mxCell id="2064" value="" style="rounded=0;whiteSpace=wrap;html=1;fillColor=none;movable=1;resizable=1;rotatable=1;deletable=1;editable=1;connectable=1;container=0;" vertex="1" parent="1">
                    <mxGeometry x="2386" y="-1124" width="32" height="32" as="geometry"/>
                </mxCell>
                <mxCell id="2065" value="" style="rounded=0;whiteSpace=wrap;html=1;fillColor=none;movable=1;resizable=1;rotatable=1;deletable=1;editable=1;connectable=1;container=0;" vertex="1" parent="1">
                    <mxGeometry x="2418" y="-1156" width="32" height="32" as="geometry"/>
                </mxCell>
                <mxCell id="2066" value="" style="rounded=0;whiteSpace=wrap;html=1;fillColor=none;movable=1;resizable=1;rotatable=1;deletable=1;editable=1;connectable=1;container=0;" vertex="1" parent="1">
                    <mxGeometry x="2450" y="-1156" width="32" height="32" as="geometry"/>
                </mxCell>
                <mxCell id="2067" value="" style="rounded=0;whiteSpace=wrap;html=1;fillColor=none;movable=1;resizable=1;rotatable=1;deletable=1;editable=1;connectable=1;container=0;" vertex="1" parent="1">
                    <mxGeometry x="2418" y="-1124" width="32" height="32" as="geometry"/>
                </mxCell>
                <mxCell id="2068" value="" style="rounded=0;whiteSpace=wrap;html=1;fillColor=none;movable=1;resizable=1;rotatable=1;deletable=1;editable=1;connectable=1;container=0;" vertex="1" parent="1">
                    <mxGeometry x="2450" y="-1124" width="32" height="32" as="geometry"/>
                </mxCell>
                <mxCell id="2069" value="" style="rounded=0;whiteSpace=wrap;html=1;fillColor=none;movable=1;resizable=1;rotatable=1;deletable=1;editable=1;connectable=1;container=0;" vertex="1" parent="1">
                    <mxGeometry x="2482" y="-1156" width="32" height="32" as="geometry"/>
                </mxCell>
                <mxCell id="2070" value="" style="rounded=0;whiteSpace=wrap;html=1;fillColor=none;movable=1;resizable=1;rotatable=1;deletable=1;editable=1;connectable=1;container=0;" vertex="1" parent="1">
                    <mxGeometry x="2482" y="-1124" width="32" height="32" as="geometry"/>
                </mxCell>
                <mxCell id="2071" value="" style="rounded=0;whiteSpace=wrap;html=1;fillColor=none;movable=1;resizable=1;rotatable=1;deletable=1;editable=1;connectable=1;container=0;" vertex="1" parent="1">
                    <mxGeometry x="2610" y="-1060" width="32" height="32" as="geometry"/>
                </mxCell>
                <mxCell id="2072" value="" style="rounded=0;whiteSpace=wrap;html=1;fillColor=none;movable=1;resizable=1;rotatable=1;deletable=1;editable=1;connectable=1;container=0;" vertex="1" parent="1">
                    <mxGeometry x="2642" y="-1060" width="32" height="32" as="geometry"/>
                </mxCell>
                <mxCell id="2073" value="" style="rounded=0;whiteSpace=wrap;html=1;fillColor=none;movable=1;resizable=1;rotatable=1;deletable=1;editable=1;connectable=1;container=0;" vertex="1" parent="1">
                    <mxGeometry x="2674" y="-1060" width="32" height="32" as="geometry"/>
                </mxCell>
                <mxCell id="2074" value="" style="rounded=0;whiteSpace=wrap;html=1;fillColor=none;movable=1;resizable=1;rotatable=1;deletable=1;editable=1;connectable=1;container=0;" vertex="1" parent="1">
                    <mxGeometry x="2610" y="-1092" width="32" height="32" as="geometry"/>
                </mxCell>
                <mxCell id="2075" value="" style="rounded=0;whiteSpace=wrap;html=1;fillColor=none;movable=1;resizable=1;rotatable=1;deletable=1;editable=1;connectable=1;container=0;" vertex="1" parent="1">
                    <mxGeometry x="2642" y="-1092" width="32" height="32" as="geometry"/>
                </mxCell>
                <mxCell id="2076" value="" style="rounded=0;whiteSpace=wrap;html=1;fillColor=none;movable=1;resizable=1;rotatable=1;deletable=1;editable=1;connectable=1;container=0;" vertex="1" parent="1">
                    <mxGeometry x="2674" y="-1092" width="32" height="32" as="geometry"/>
                </mxCell>
                <mxCell id="2077" value="" style="rounded=0;whiteSpace=wrap;html=1;fillColor=none;movable=1;resizable=1;rotatable=1;deletable=1;editable=1;connectable=1;container=0;" vertex="1" parent="1">
                    <mxGeometry x="2514" y="-1060" width="32" height="32" as="geometry"/>
                </mxCell>
                <mxCell id="2078" value="" style="rounded=0;whiteSpace=wrap;html=1;fillColor=none;movable=1;resizable=1;rotatable=1;deletable=1;editable=1;connectable=1;container=0;" vertex="1" parent="1">
                    <mxGeometry x="2546" y="-1060" width="32" height="32" as="geometry"/>
                </mxCell>
                <mxCell id="2079" value="" style="rounded=0;whiteSpace=wrap;html=1;fillColor=none;movable=1;resizable=1;rotatable=1;deletable=1;editable=1;connectable=1;container=0;" vertex="1" parent="1">
                    <mxGeometry x="2578" y="-1060" width="32" height="32" as="geometry"/>
                </mxCell>
                <mxCell id="2080" value="" style="rounded=0;whiteSpace=wrap;html=1;fillColor=none;movable=1;resizable=1;rotatable=1;deletable=1;editable=1;connectable=1;container=0;" vertex="1" parent="1">
                    <mxGeometry x="2514" y="-1092" width="32" height="32" as="geometry"/>
                </mxCell>
                <mxCell id="2081" value="" style="rounded=0;whiteSpace=wrap;html=1;fillColor=none;movable=1;resizable=1;rotatable=1;deletable=1;editable=1;connectable=1;container=0;" vertex="1" parent="1">
                    <mxGeometry x="2546" y="-1092" width="32" height="32" as="geometry"/>
                </mxCell>
                <mxCell id="2082" value="" style="rounded=0;whiteSpace=wrap;html=1;fillColor=none;movable=1;resizable=1;rotatable=1;deletable=1;editable=1;connectable=1;container=0;" vertex="1" parent="1">
                    <mxGeometry x="2578" y="-1092" width="32" height="32" as="geometry"/>
                </mxCell>
                <mxCell id="2083" value="" style="rounded=0;whiteSpace=wrap;html=1;fillColor=none;movable=1;resizable=1;rotatable=1;deletable=1;editable=1;connectable=1;container=0;" vertex="1" parent="1">
                    <mxGeometry x="2514" y="-1156" width="32" height="32" as="geometry"/>
                </mxCell>
                <mxCell id="2084" value="" style="rounded=0;whiteSpace=wrap;html=1;fillColor=none;movable=1;resizable=1;rotatable=1;deletable=1;editable=1;connectable=1;container=0;" vertex="1" parent="1">
                    <mxGeometry x="2546" y="-1156" width="32" height="32" as="geometry"/>
                </mxCell>
                <mxCell id="2085" value="" style="rounded=0;whiteSpace=wrap;html=1;fillColor=none;movable=1;resizable=1;rotatable=1;deletable=1;editable=1;connectable=1;container=0;" vertex="1" parent="1">
                    <mxGeometry x="2514" y="-1124" width="32" height="32" as="geometry"/>
                </mxCell>
                <mxCell id="2086" value="" style="rounded=0;whiteSpace=wrap;html=1;fillColor=none;movable=1;resizable=1;rotatable=1;deletable=1;editable=1;connectable=1;container=0;" vertex="1" parent="1">
                    <mxGeometry x="2546" y="-1124" width="32" height="32" as="geometry"/>
                </mxCell>
                <mxCell id="2087" value="" style="rounded=0;whiteSpace=wrap;html=1;fillColor=none;movable=1;resizable=1;rotatable=1;deletable=1;editable=1;connectable=1;container=0;" vertex="1" parent="1">
                    <mxGeometry x="2578" y="-1156" width="32" height="32" as="geometry"/>
                </mxCell>
                <mxCell id="2088" value="" style="rounded=0;whiteSpace=wrap;html=1;fillColor=none;movable=1;resizable=1;rotatable=1;deletable=1;editable=1;connectable=1;container=0;" vertex="1" parent="1">
                    <mxGeometry x="2578" y="-1124" width="32" height="32" as="geometry"/>
                </mxCell>
                <mxCell id="2089" value="" style="rounded=0;whiteSpace=wrap;html=1;fillColor=none;movable=1;resizable=1;rotatable=1;deletable=1;editable=1;connectable=1;container=0;" vertex="1" parent="1">
                    <mxGeometry x="2610" y="-1156" width="32" height="32" as="geometry"/>
                </mxCell>
                <mxCell id="2090" value="" style="rounded=0;whiteSpace=wrap;html=1;fillColor=none;movable=1;resizable=1;rotatable=1;deletable=1;editable=1;connectable=1;container=0;" vertex="1" parent="1">
                    <mxGeometry x="2642" y="-1156" width="32" height="32" as="geometry"/>
                </mxCell>
                <mxCell id="2091" value="" style="rounded=0;whiteSpace=wrap;html=1;fillColor=none;movable=1;resizable=1;rotatable=1;deletable=1;editable=1;connectable=1;container=0;" vertex="1" parent="1">
                    <mxGeometry x="2610" y="-1124" width="32" height="32" as="geometry"/>
                </mxCell>
                <mxCell id="2092" value="" style="rounded=0;whiteSpace=wrap;html=1;fillColor=none;movable=1;resizable=1;rotatable=1;deletable=1;editable=1;connectable=1;container=0;" vertex="1" parent="1">
                    <mxGeometry x="2642" y="-1124" width="32" height="32" as="geometry"/>
                </mxCell>
                <mxCell id="2093" value="" style="rounded=0;whiteSpace=wrap;html=1;fillColor=none;movable=1;resizable=1;rotatable=1;deletable=1;editable=1;connectable=1;container=0;" vertex="1" parent="1">
                    <mxGeometry x="2674" y="-1156" width="32" height="32" as="geometry"/>
                </mxCell>
                <mxCell id="2094" value="" style="rounded=0;whiteSpace=wrap;html=1;fillColor=none;movable=1;resizable=1;rotatable=1;deletable=1;editable=1;connectable=1;container=0;" vertex="1" parent="1">
                    <mxGeometry x="2674" y="-1124" width="32" height="32" as="geometry"/>
                </mxCell>
                <mxCell id="2095" value="" style="rounded=0;whiteSpace=wrap;html=1;fillColor=none;movable=1;resizable=1;rotatable=1;deletable=1;editable=1;connectable=1;container=0;" vertex="1" parent="1">
                    <mxGeometry x="2802" y="-1060" width="32" height="32" as="geometry"/>
                </mxCell>
                <mxCell id="2096" value="" style="rounded=0;whiteSpace=wrap;html=1;fillColor=none;movable=1;resizable=1;rotatable=1;deletable=1;editable=1;connectable=1;container=0;" vertex="1" parent="1">
                    <mxGeometry x="2834" y="-1060" width="32" height="32" as="geometry"/>
                </mxCell>
                <mxCell id="2097" value="" style="rounded=0;whiteSpace=wrap;html=1;fillColor=none;movable=1;resizable=1;rotatable=1;deletable=1;editable=1;connectable=1;container=0;" vertex="1" parent="1">
                    <mxGeometry x="2866" y="-1060" width="32" height="32" as="geometry"/>
                </mxCell>
                <mxCell id="2098" value="" style="rounded=0;whiteSpace=wrap;html=1;fillColor=none;movable=1;resizable=1;rotatable=1;deletable=1;editable=1;connectable=1;container=0;" vertex="1" parent="1">
                    <mxGeometry x="2802" y="-1092" width="32" height="32" as="geometry"/>
                </mxCell>
                <mxCell id="2099" value="" style="rounded=0;whiteSpace=wrap;html=1;fillColor=none;movable=1;resizable=1;rotatable=1;deletable=1;editable=1;connectable=1;container=0;" vertex="1" parent="1">
                    <mxGeometry x="2834" y="-1092" width="32" height="32" as="geometry"/>
                </mxCell>
                <mxCell id="2100" value="" style="rounded=0;whiteSpace=wrap;html=1;fillColor=none;movable=1;resizable=1;rotatable=1;deletable=1;editable=1;connectable=1;container=0;" vertex="1" parent="1">
                    <mxGeometry x="2866" y="-1092" width="32" height="32" as="geometry"/>
                </mxCell>
                <mxCell id="2101" value="" style="rounded=0;whiteSpace=wrap;html=1;fillColor=none;movable=1;resizable=1;rotatable=1;deletable=1;editable=1;connectable=1;container=0;" vertex="1" parent="1">
                    <mxGeometry x="2706" y="-1060" width="32" height="32" as="geometry"/>
                </mxCell>
                <mxCell id="2102" value="" style="rounded=0;whiteSpace=wrap;html=1;fillColor=none;movable=1;resizable=1;rotatable=1;deletable=1;editable=1;connectable=1;container=0;" vertex="1" parent="1">
                    <mxGeometry x="2738" y="-1060" width="32" height="32" as="geometry"/>
                </mxCell>
                <mxCell id="2103" value="" style="rounded=0;whiteSpace=wrap;html=1;fillColor=none;movable=1;resizable=1;rotatable=1;deletable=1;editable=1;connectable=1;container=0;" vertex="1" parent="1">
                    <mxGeometry x="2770" y="-1060" width="32" height="32" as="geometry"/>
                </mxCell>
                <mxCell id="2104" value="" style="rounded=0;whiteSpace=wrap;html=1;fillColor=none;movable=1;resizable=1;rotatable=1;deletable=1;editable=1;connectable=1;container=0;" vertex="1" parent="1">
                    <mxGeometry x="2706" y="-1092" width="32" height="32" as="geometry"/>
                </mxCell>
                <mxCell id="2105" value="" style="rounded=0;whiteSpace=wrap;html=1;fillColor=none;movable=1;resizable=1;rotatable=1;deletable=1;editable=1;connectable=1;container=0;" vertex="1" parent="1">
                    <mxGeometry x="2738" y="-1092" width="32" height="32" as="geometry"/>
                </mxCell>
                <mxCell id="2106" value="" style="rounded=0;whiteSpace=wrap;html=1;fillColor=none;movable=1;resizable=1;rotatable=1;deletable=1;editable=1;connectable=1;container=0;" vertex="1" parent="1">
                    <mxGeometry x="2770" y="-1092" width="32" height="32" as="geometry"/>
                </mxCell>
                <mxCell id="2107" value="" style="rounded=0;whiteSpace=wrap;html=1;fillColor=none;movable=1;resizable=1;rotatable=1;deletable=1;editable=1;connectable=1;container=0;" vertex="1" parent="1">
                    <mxGeometry x="2706" y="-1156" width="32" height="32" as="geometry"/>
                </mxCell>
                <mxCell id="2108" value="" style="rounded=0;whiteSpace=wrap;html=1;fillColor=none;movable=1;resizable=1;rotatable=1;deletable=1;editable=1;connectable=1;container=0;" vertex="1" parent="1">
                    <mxGeometry x="2738" y="-1156" width="32" height="32" as="geometry"/>
                </mxCell>
                <mxCell id="2109" value="" style="rounded=0;whiteSpace=wrap;html=1;fillColor=none;movable=1;resizable=1;rotatable=1;deletable=1;editable=1;connectable=1;container=0;" vertex="1" parent="1">
                    <mxGeometry x="2706" y="-1124" width="32" height="32" as="geometry"/>
                </mxCell>
                <mxCell id="2110" value="" style="rounded=0;whiteSpace=wrap;html=1;fillColor=none;movable=1;resizable=1;rotatable=1;deletable=1;editable=1;connectable=1;container=0;" vertex="1" parent="1">
                    <mxGeometry x="2738" y="-1124" width="32" height="32" as="geometry"/>
                </mxCell>
                <mxCell id="2111" value="" style="rounded=0;whiteSpace=wrap;html=1;fillColor=none;movable=1;resizable=1;rotatable=1;deletable=1;editable=1;connectable=1;container=0;" vertex="1" parent="1">
                    <mxGeometry x="2770" y="-1156" width="32" height="32" as="geometry"/>
                </mxCell>
                <mxCell id="2112" value="" style="rounded=0;whiteSpace=wrap;html=1;fillColor=none;movable=1;resizable=1;rotatable=1;deletable=1;editable=1;connectable=1;container=0;" vertex="1" parent="1">
                    <mxGeometry x="2770" y="-1124" width="32" height="32" as="geometry"/>
                </mxCell>
                <mxCell id="2113" value="" style="rounded=0;whiteSpace=wrap;html=1;fillColor=none;movable=1;resizable=1;rotatable=1;deletable=1;editable=1;connectable=1;container=0;" vertex="1" parent="1">
                    <mxGeometry x="2802" y="-1156" width="32" height="32" as="geometry"/>
                </mxCell>
                <mxCell id="2114" value="" style="rounded=0;whiteSpace=wrap;html=1;fillColor=none;movable=1;resizable=1;rotatable=1;deletable=1;editable=1;connectable=1;container=0;" vertex="1" parent="1">
                    <mxGeometry x="2834" y="-1156" width="32" height="32" as="geometry"/>
                </mxCell>
                <mxCell id="2115" value="" style="rounded=0;whiteSpace=wrap;html=1;fillColor=none;movable=1;resizable=1;rotatable=1;deletable=1;editable=1;connectable=1;container=0;" vertex="1" parent="1">
                    <mxGeometry x="2802" y="-1124" width="32" height="32" as="geometry"/>
                </mxCell>
                <mxCell id="2116" value="" style="rounded=0;whiteSpace=wrap;html=1;fillColor=none;movable=1;resizable=1;rotatable=1;deletable=1;editable=1;connectable=1;container=0;" vertex="1" parent="1">
                    <mxGeometry x="2834" y="-1124" width="32" height="32" as="geometry"/>
                </mxCell>
                <mxCell id="2117" value="" style="rounded=0;whiteSpace=wrap;html=1;fillColor=none;movable=1;resizable=1;rotatable=1;deletable=1;editable=1;connectable=1;container=0;" vertex="1" parent="1">
                    <mxGeometry x="2866" y="-1156" width="32" height="32" as="geometry"/>
                </mxCell>
                <mxCell id="2118" value="" style="rounded=0;whiteSpace=wrap;html=1;fillColor=none;movable=1;resizable=1;rotatable=1;deletable=1;editable=1;connectable=1;container=0;" vertex="1" parent="1">
                    <mxGeometry x="2866" y="-1124" width="32" height="32" as="geometry"/>
                </mxCell>
                <mxCell id="2119" value="" style="rounded=0;whiteSpace=wrap;html=1;fillColor=none;movable=1;resizable=1;rotatable=1;deletable=1;editable=1;connectable=1;container=0;" vertex="1" parent="1">
                    <mxGeometry x="2386" y="-1156" width="32" height="32" as="geometry"/>
                </mxCell>
                <mxCell id="2120" value="" style="rounded=0;whiteSpace=wrap;html=1;fillColor=none;movable=1;resizable=1;rotatable=1;deletable=1;editable=1;connectable=1;container=0;" vertex="1" parent="1">
                    <mxGeometry x="2130" y="-1188" width="32" height="32" as="geometry"/>
                </mxCell>
                <mxCell id="2121" value="" style="rounded=0;whiteSpace=wrap;html=1;fillColor=none;movable=1;resizable=1;rotatable=1;deletable=1;editable=1;connectable=1;container=0;" vertex="1" parent="1">
                    <mxGeometry x="2162" y="-1188" width="32" height="32" as="geometry"/>
                </mxCell>
                <mxCell id="2122" value="" style="rounded=0;whiteSpace=wrap;html=1;fillColor=none;movable=1;resizable=1;rotatable=1;deletable=1;editable=1;connectable=1;container=0;" vertex="1" parent="1">
                    <mxGeometry x="2194" y="-1188" width="32" height="32" as="geometry"/>
                </mxCell>
                <mxCell id="2123" value="" style="rounded=0;whiteSpace=wrap;html=1;fillColor=none;movable=1;resizable=1;rotatable=1;deletable=1;editable=1;connectable=1;container=0;" vertex="1" parent="1">
                    <mxGeometry x="2226" y="-1188" width="32" height="32" as="geometry"/>
                </mxCell>
                <mxCell id="2124" value="" style="rounded=0;whiteSpace=wrap;html=1;fillColor=none;movable=1;resizable=1;rotatable=1;deletable=1;editable=1;connectable=1;container=0;" vertex="1" parent="1">
                    <mxGeometry x="2258" y="-1188" width="32" height="32" as="geometry"/>
                </mxCell>
                <mxCell id="2125" value="" style="rounded=0;whiteSpace=wrap;html=1;fillColor=none;movable=1;resizable=1;rotatable=1;deletable=1;editable=1;connectable=1;container=0;" vertex="1" parent="1">
                    <mxGeometry x="2290" y="-1188" width="32" height="32" as="geometry"/>
                </mxCell>
                <mxCell id="2126" value="" style="rounded=0;whiteSpace=wrap;html=1;fillColor=none;movable=1;resizable=1;rotatable=1;deletable=1;editable=1;connectable=1;container=0;" vertex="1" parent="1">
                    <mxGeometry x="2322" y="-1188" width="32" height="32" as="geometry"/>
                </mxCell>
                <mxCell id="2127" value="" style="rounded=0;whiteSpace=wrap;html=1;fillColor=none;movable=1;resizable=1;rotatable=1;deletable=1;editable=1;connectable=1;container=0;" vertex="1" parent="1">
                    <mxGeometry x="2354" y="-1188" width="32" height="32" as="geometry"/>
                </mxCell>
                <mxCell id="2128" value="" style="rounded=0;whiteSpace=wrap;html=1;fillColor=none;movable=1;resizable=1;rotatable=1;deletable=1;editable=1;connectable=1;container=0;" vertex="1" parent="1">
                    <mxGeometry x="2418" y="-1188" width="32" height="32" as="geometry"/>
                </mxCell>
                <mxCell id="2129" value="" style="rounded=0;whiteSpace=wrap;html=1;fillColor=none;movable=1;resizable=1;rotatable=1;deletable=1;editable=1;connectable=1;container=0;" vertex="1" parent="1">
                    <mxGeometry x="2450" y="-1188" width="32" height="32" as="geometry"/>
                </mxCell>
                <mxCell id="2130" value="" style="rounded=0;whiteSpace=wrap;html=1;fillColor=none;movable=1;resizable=1;rotatable=1;deletable=1;editable=1;connectable=1;container=0;" vertex="1" parent="1">
                    <mxGeometry x="2482" y="-1188" width="32" height="32" as="geometry"/>
                </mxCell>
                <mxCell id="2131" value="" style="rounded=0;whiteSpace=wrap;html=1;fillColor=none;movable=1;resizable=1;rotatable=1;deletable=1;editable=1;connectable=1;container=0;" vertex="1" parent="1">
                    <mxGeometry x="2514" y="-1188" width="32" height="32" as="geometry"/>
                </mxCell>
                <mxCell id="2132" value="" style="rounded=0;whiteSpace=wrap;html=1;fillColor=none;movable=1;resizable=1;rotatable=1;deletable=1;editable=1;connectable=1;container=0;" vertex="1" parent="1">
                    <mxGeometry x="2546" y="-1188" width="32" height="32" as="geometry"/>
                </mxCell>
                <mxCell id="2133" value="" style="rounded=0;whiteSpace=wrap;html=1;fillColor=none;movable=1;resizable=1;rotatable=1;deletable=1;editable=1;connectable=1;container=0;" vertex="1" parent="1">
                    <mxGeometry x="2578" y="-1188" width="32" height="32" as="geometry"/>
                </mxCell>
                <mxCell id="2134" value="" style="rounded=0;whiteSpace=wrap;html=1;fillColor=none;movable=1;resizable=1;rotatable=1;deletable=1;editable=1;connectable=1;container=0;" vertex="1" parent="1">
                    <mxGeometry x="2610" y="-1188" width="32" height="32" as="geometry"/>
                </mxCell>
                <mxCell id="2135" value="" style="rounded=0;whiteSpace=wrap;html=1;fillColor=none;movable=1;resizable=1;rotatable=1;deletable=1;editable=1;connectable=1;container=0;" vertex="1" parent="1">
                    <mxGeometry x="2642" y="-1188" width="32" height="32" as="geometry"/>
                </mxCell>
                <mxCell id="2136" value="" style="rounded=0;whiteSpace=wrap;html=1;fillColor=none;movable=1;resizable=1;rotatable=1;deletable=1;editable=1;connectable=1;container=0;" vertex="1" parent="1">
                    <mxGeometry x="2674" y="-1188" width="32" height="32" as="geometry"/>
                </mxCell>
                <mxCell id="2137" value="" style="rounded=0;whiteSpace=wrap;html=1;fillColor=none;movable=1;resizable=1;rotatable=1;deletable=1;editable=1;connectable=1;container=0;" vertex="1" parent="1">
                    <mxGeometry x="2706" y="-1188" width="32" height="32" as="geometry"/>
                </mxCell>
                <mxCell id="2138" value="" style="rounded=0;whiteSpace=wrap;html=1;fillColor=none;movable=1;resizable=1;rotatable=1;deletable=1;editable=1;connectable=1;container=0;" vertex="1" parent="1">
                    <mxGeometry x="2738" y="-1188" width="32" height="32" as="geometry"/>
                </mxCell>
                <mxCell id="2139" value="" style="rounded=0;whiteSpace=wrap;html=1;fillColor=none;movable=1;resizable=1;rotatable=1;deletable=1;editable=1;connectable=1;container=0;" vertex="1" parent="1">
                    <mxGeometry x="2770" y="-1188" width="32" height="32" as="geometry"/>
                </mxCell>
                <mxCell id="2140" value="" style="rounded=0;whiteSpace=wrap;html=1;fillColor=none;movable=1;resizable=1;rotatable=1;deletable=1;editable=1;connectable=1;container=0;" vertex="1" parent="1">
                    <mxGeometry x="2802" y="-1188" width="32" height="32" as="geometry"/>
                </mxCell>
                <mxCell id="2141" value="" style="rounded=0;whiteSpace=wrap;html=1;fillColor=none;movable=1;resizable=1;rotatable=1;deletable=1;editable=1;connectable=1;container=0;" vertex="1" parent="1">
                    <mxGeometry x="2834" y="-1188" width="32" height="32" as="geometry"/>
                </mxCell>
                <mxCell id="2142" value="" style="rounded=0;whiteSpace=wrap;html=1;fillColor=none;movable=1;resizable=1;rotatable=1;deletable=1;editable=1;connectable=1;container=0;" vertex="1" parent="1">
                    <mxGeometry x="2866" y="-1188" width="32" height="32" as="geometry"/>
                </mxCell>
                <mxCell id="2143" value="" style="rounded=0;whiteSpace=wrap;html=1;fillColor=none;movable=1;resizable=1;rotatable=1;deletable=1;editable=1;connectable=1;container=0;" vertex="1" parent="1">
                    <mxGeometry x="2386" y="-1188" width="32" height="32" as="geometry"/>
                </mxCell>
                <mxCell id="1530" value="" style="ellipse;whiteSpace=wrap;html=1;strokeWidth=3;fillColor=#2a2a2a;fontColor=#f0f0f0;rotation=-135;" vertex="1" parent="1">
                    <mxGeometry x="2701" y="-1080" width="151" height="47" as="geometry"/>
                </mxCell>
                <mxCell id="1249" value="" style="triangle;whiteSpace=wrap;html=1;fontFamily=Helvetica;fontSize=12;fontColor=#f0f0f0;align=center;strokeColor=#f0f0f0;container=0;connectable=1;rotation=30;strokeWidth=3;" vertex="1" parent="1">
                    <mxGeometry x="2300" y="-1142.75" width="65" height="306.75" as="geometry"/>
                </mxCell>
                <mxCell id="2144" value="" style="shape=trapezoid;perimeter=trapezoidPerimeter;whiteSpace=wrap;html=1;fixedSize=1;strokeWidth=3;fillColor=#2a2a2a;fontColor=#f0f0f0;rotation=75;" vertex="1" parent="1">
                    <mxGeometry x="2162" y="-765" width="120" height="60" as="geometry"/>
                </mxCell>
            </root>
        </mxGraphModel>
    </diagram>
</mxfile>